<?xml version="1.0" encoding="UTF-8"?>
<svg width="560px" height="211px" viewBox="0 0 560 211" version="1.1" xmlns="http://www.w3.org/2000/svg" xmlns:xlink="http://www.w3.org/1999/xlink">
    <title>Path</title>
    <g id="Page-1" stroke="none" stroke-width="1" fill="none" fill-rule="evenodd">
        <g id="2032972" transform="translate(-58.000000, -643.000000)" fill="#000000" fill-rule="nonzero">
            <g id="Group" transform="translate(601.400000, 427.300000) scale(-1, 1) rotate(-180.000000) translate(-601.400000, -427.300000) translate(0.400000, 0.800000)">
                <path d="M231.6,209.8 C227.5,209.4 222.8,208.6 221.1,208 C219.5,207.4 216.2,206.7 213.9,206.5 C211.6,206.3 209,205.6 208.2,204.9 C206.3,203.3 194.8,200.7 194.1,201.8 C193.9,202.2 191.1,202.1 187.9,201.7 C179.7,200.6 146.1,200.2 140.1,201.1 C137.4,201.6 129.7,201.9 123.1,201.9 C116.5,201.9 109.5,202.3 107.4,202.8 C95,206.2 78.8,206.7 73.2,203.9 C70.9,202.8 67.5,201.7 65.5,201.3 C62.5,200.9 61.7,200.2 61.3,198 C61,196.3 61.5,194.4 62.7,192.7 C63.8,191.1 64.9,187.4 65.2,183.9 C65.6,180.4 66.4,177.7 67.2,177.4 C68,177.1 68.5,174.6 68.6,170.1 C69,151.2 69.4,146.1 70.5,143.9 C71.3,142.4 71.6,140 71.1,137.1 C70.7,134.1 70.9,132.2 71.7,131.1 C73.2,129.4 73.1,124.1 71.6,122.3 C71.1,121.6 70.9,120.8 71.2,120.5 C72.5,119.2 70.6,115.1 68,113.8 C64.3,111.7 61.4,105.2 62.2,100.5 C62.6,97.6 62.4,96.2 61,94.7 C60,93.6 59.8,92.8 60.4,92.8 C62.2,92.8 61.8,86.3 60.1,84.8 C59.2,84.1 58.9,83.1 59.3,82.7 C59.7,82.3 59.8,78.4 59.4,74.1 C59,69.8 58.6,64.3 58.4,61.8 C58.1,59.3 58.6,55.8 59.4,53.8 C60.3,51.9 60.8,49.9 60.7,49.4 C60.6,48.9 60.8,47.8 61.2,46.9 C62.3,44.3 62.7,42.6 63.2,37.9 C63.5,35.4 64.1,32.9 64.7,32.2 C65.4,31.4 65.2,29.9 64.2,27.5 C62.5,23.4 63.5,21.8 67.7,21.8 C69.2,21.8 70.6,21.3 70.8,20.8 C71,20.1 74.5,20 81.6,20.6 C91.9,21.4 101.9,20.8 108.6,18.9 C110.5,18.4 115.3,17 119.1,15.8 C123,14.7 127.9,13.5 130.1,13.3 C132.2,13 134.9,12.2 136.1,11.4 C139.3,9.4 142.5,8.6 151.1,7.8 C168.4,6.2 179.3,4.7 183.6,3.3 C186.1,2.5 191.3,1.7 195.1,1.6 C201,1.5 202.8,1.9 206.6,4.1 C209.1,5.5 213.6,7.1 216.6,7.6 C224.9,9.1 269.5,7.8 278.1,5.8 C280.9,5.2 289.3,4.7 297.1,4.9 C304.8,5 322.9,5 337.2,5 C361.5,4.8 363.7,4.7 368.2,2.7 C372.6,0.8 375.3,0.5 395.6,0.2 C412.7,-0.1 419.9,0.2 425.6,1.3 C432.2,2.6 443.7,3.1 465.6,2.9 C469.2,2.8 476.5,3.7 481.8,4.8 C487.1,5.9 494.8,6.8 498.9,6.8 C508.3,6.8 521.7,9.3 527,12 C531,14.1 531.6,14.1 547.1,13 C568.2,11.4 582.7,13 594.8,18.3 C605.4,22.9 608.9,25.7 610.4,30.7 C612.1,36.3 612,49.3 610.2,55.2 C609,59 608.9,61.8 609.6,67.2 C610.4,73.8 610.2,80.1 609,85.5 C608.8,86.7 607.5,88.8 606.2,90 C604.9,91.3 603.6,93.4 603.3,94.8 C602.6,97.7 605.7,106.6 611.2,117.5 C614.3,123.5 614.8,125.3 614.4,129.2 C614,132.1 614.3,134.4 615.2,135.6 C616.4,137.4 617.7,156.8 616.6,156.8 C616.3,156.8 616,157.6 615.9,158.6 C615.7,160.6 614.7,166.2 614,169.6 C613.7,171.2 612.9,171.8 610.8,171.8 C606.1,171.8 603.6,172.9 603.6,175 C603.6,176 602.5,178.5 601.1,180.5 C599.3,183.3 598.9,184.6 599.7,186 C600.2,187 601.2,187.8 601.9,187.8 C604.1,187.8 600.3,189.7 594.6,191.4 C587.7,193.5 575.6,193.9 575.6,192 C575.6,191.2 575.1,191 574.4,191.5 C573.1,192.3 560.6,192.8 534.1,193.2 C520.1,193.4 511.8,194.6 507.6,196.8 C506.6,197.3 503.9,197.9 501.5,198.2 C499.1,198.4 494.4,199.6 491.2,200.7 C487.9,201.9 484.4,202.6 483.4,202.2 C482.4,201.9 481.6,202.1 481.6,202.6 C481.6,203.9 474.5,203.9 472.9,202.7 C472.2,202 471.5,202.1 471.1,202.7 C470.7,203.4 469.6,203.2 467.8,202 C463.7,199.3 445.4,197.8 439.6,199.6 C437.1,200.4 434.7,201.4 434.1,201.8 C433.6,202.2 429.6,202.8 425.4,203.2 C421.1,203.6 415.9,204.5 413.9,205.2 C411.8,205.9 408.3,206.3 406,206 C403.2,205.8 401.4,206.1 400.4,207.2 C399.1,208.4 397.7,208.5 392.5,207.8 C389,207.3 377.3,206.6 366.6,206.3 C355.9,205.9 344.7,205.5 341.7,205.3 C338.8,205.1 335.2,205.4 333.7,205.8 C328.9,207.4 320.3,207.9 290.6,208.3 C264.4,208.6 255.3,209 242.6,210.2 C240.7,210.4 235.7,210.2 231.6,209.8 Z" id="Path"></path>
            </g>
        </g>
    </g>
</svg>