<?xml version="1.0" encoding="UTF-8"?>
<svg width="639px" height="445px" viewBox="0 0 639 445" version="1.1" xmlns="http://www.w3.org/2000/svg" xmlns:xlink="http://www.w3.org/1999/xlink">
    <title>Path</title>
    <g id="Page-1" stroke="none" stroke-width="1" fill="none" fill-rule="evenodd">
        <g id="2032972" transform="translate(0.000000, -1.000000)" fill="#000000" fill-rule="nonzero">
            <g id="Group" transform="translate(601.400000, 427.300000) scale(-1, 1) rotate(-180.000000) translate(-601.400000, -427.300000) translate(0.400000, 0.800000)">
                <path d="M606.6,851.8 C605.8,851.2 604.1,850.8 603,850.8 C599.4,850.8 590.2,846.6 587.9,844 C586,841.7 584.9,841.4 578.4,841.3 C571.7,841.1 562.7,838.9 560.2,836.6 C558.8,835.4 552.3,835.6 553.1,836.8 C553.5,837.5 552.9,837.5 551.4,836.9 C549.1,835.9 542.5,834.9 535.1,834.2 C532.9,834.1 528.5,833.7 525.2,833.4 C520.2,833 518.6,833.3 514.5,835.5 L509.7,838.1 L507.2,835.7 C505.7,834.3 504.6,832.2 504.6,830.6 C504.6,825.6 502.9,823 499.1,821.9 C497.1,821.4 494.8,820.1 493.8,819 C492.5,817.6 489.7,816.8 482.6,815.9 C477.3,815.2 472.4,814.1 471.5,813.3 C470.7,812.5 469.6,811.8 469.2,811.8 C468.8,811.8 466.6,810.9 464.3,809.9 C461.9,808.8 458.7,807.6 457.1,807.2 C455.4,806.8 453.3,805.8 452.3,804.9 C450.6,803.4 450.3,803.5 448.9,805.3 C448.1,806.4 447.2,806.8 447,806.3 C446.8,805.7 444.1,805.3 441,805.5 C436.6,805.6 434.8,806.2 432.7,808.1 C430.9,809.8 428.4,810.8 424.6,811.2 C421.6,811.6 418.9,811.8 418.6,811.7 C418.3,811.6 417.1,812 415.9,812.6 C414.6,813.3 413.5,813.4 413.1,812.9 C411.7,810.5 400,813.3 393.2,817.6 C390.4,819.4 386.9,820.8 385.2,820.8 C383.6,820.8 380.7,821.3 378.9,822 C376,823 375.3,823 374.5,821.8 C373.7,820.5 373.5,820.5 372.7,821.7 C371.9,822.9 371.5,822.9 370.1,821.5 C369.2,820.5 366.9,819.8 365.1,819.8 C362.4,819.8 361.7,820.2 361.4,822.1 C361.2,823.4 359.9,824.9 357.9,825.8 C356,826.7 354.6,828.1 354.6,829.1 C354.6,830.9 354.5,830.9 351.9,829 C350.3,828 347.5,826.4 345.6,825.4 C343.7,824.5 341.4,823.4 340.6,822.9 C338.6,821.8 329.1,818.8 327.6,818.8 C327,818.8 325.8,818.2 325.1,817.4 C323.1,815.5 317.3,816.2 311.2,819.2 C308.3,820.6 305.6,821.8 305.3,821.8 C304.9,821.8 301.9,823.9 298.6,826.4 C292.4,831.3 290.2,831.6 288.7,827.6 C287.4,824.2 274,816.6 256.6,809.3 C253,807.8 248.2,805.5 245.9,804.2 L241.7,801.8 L235.7,803.8 C232.4,804.9 228.6,805.8 227.2,805.8 C225.8,805.8 224.5,806.2 224.2,806.7 C223.9,807.2 222.7,807.4 221.6,807.1 C220.5,806.8 218.5,807.3 217.1,808.2 C214.9,809.7 206.9,811.2 195.3,812.4 C190.9,812.8 190.3,812.6 187.3,809.5 C184.7,806.7 183.3,806 179.8,805.9 C177.4,805.9 174.1,806.5 172.5,807.4 C168.6,809.3 160,810.8 148.2,811.3 C134.1,812 132.3,812.7 125.1,820.3 C120.3,825.3 118.2,826.9 116.4,826.7 C114,826.4 108.4,828.9 105.4,831.6 C103.9,832.8 102.7,832.9 97.7,831.9 C93.6,831.1 90.5,831 87.4,831.7 C84.7,832.3 81.7,832.4 79.8,831.9 C78.1,831.4 76.5,831.2 76.2,831.6 C75.9,831.9 75.6,831.7 75.6,831.1 C75.6,830 59.6,830.1 57.8,831.2 C57.2,831.6 54.3,832.1 51.4,832.4 C48.5,832.6 45.2,832.9 44,833.1 C42.6,833.2 40.2,831.3 36.3,826.8 C28.6,818.1 25.6,811.6 25.6,804 C25.6,800.6 24.6,795 23.4,791.2 C22.2,787.4 21.2,781.5 21.1,778.1 C21.1,774.7 20.7,771.6 20.4,771.2 C20,770.9 20,770 20.3,769.2 C20.6,768.4 20.1,767 19.3,766 C15.8,762.1 12.7,754.1 12.1,747.3 C11,733.8 10.7,732.3 9.2,728.6 C8.3,726.4 7.6,722 7.6,717.9 C7.6,714.1 7,709.9 6.3,708.5 C4.6,705.3 4,677.4 5.6,673.4 C6.1,671.9 6.3,670.2 6,669.6 C5.6,669 5.2,666 5,662.9 C4.3,650.3 3.7,644.9 2.8,643.1 C2.3,642.1 1.8,638.2 1.7,634.4 C1.6,630.6 1.1,626.8 0.7,625.9 C0.2,625 0,620.8 0.1,616.6 C0.3,610.7 0.8,608.3 2.4,606.3 C5.1,603 5.8,596.8 6.1,576.3 C6.3,558 7,555 11.7,548.4 C13.3,546.2 14.6,543.9 14.6,543.3 C14.6,542.8 15.5,540.6 16.6,538.4 C18.2,535.5 18.5,533.6 18.1,530.3 C17.7,528 18,522.7 18.7,518.7 C20,511.5 20.5,501.9 20.5,487.3 C20.5,483.5 20.5,477.5 20.5,474.1 C20.4,468.2 22.5,462.8 24.7,462.8 C25.5,462.8 30.5,453.9 30.7,452.1 C30.9,451 31.6,448.9 33,444.9 C34.7,440.4 40.5,438.2 44.8,440.4 C46.4,441.2 50.5,442.3 53.9,442.7 C57.3,443.2 63,444.3 66.6,445.1 C75.5,447.3 92.2,448.9 110.1,449.1 C126.8,449.3 127.9,449.2 135.6,445.3 C140.5,442.8 142.4,442.5 152.6,442.2 C160.3,442.1 165.8,442.5 169.4,443.4 C174.9,444.9 181.5,444.3 191.4,441.1 C193.7,440.4 197.9,439.8 200.6,439.8 C203.4,439.8 206.4,439.4 207.4,438.9 C219.8,432.9 228.6,429.6 231.2,430.1 C232.5,430.3 234.1,429.9 234.7,429.2 C235.3,428.4 236.5,427.8 237.2,427.8 C238,427.8 239.4,427.4 240.4,426.9 C241.3,426.4 244.6,424.8 247.6,423.2 C254.9,419.6 261.3,415.9 266.4,412.6 C271,409.5 276.5,408.1 284.5,407.9 C289.4,407.8 291.6,408.6 307,416.1 C323.1,424 324.6,424.5 332.1,425.1 C338.2,425.5 341.6,426.3 346.6,428.7 C350.2,430.4 354.2,431.8 355.6,431.8 C357,431.8 361,433.2 364.4,434.9 C370.1,437.6 371.3,437.9 375.9,437.2 C378.8,436.7 384.7,436.3 389.1,436.3 C398.3,436.1 408.7,434.6 413.1,432.7 C415.6,431.7 426,431 446.6,430.7 C455.6,430.5 488.5,432.7 491.6,433.7 C493.5,434.3 496.6,434.8 498.5,434.8 C500.3,434.8 503.4,435.7 505.2,436.9 C509.2,439.3 514.6,441 514.6,439.8 C514.6,439.3 516.3,438.4 518.4,437.7 C520.4,437.1 522.6,436.3 523.1,435.9 C523.7,435.6 524.9,435.2 526,435.1 C527,434.9 529.3,434.2 531,433.4 C532.7,432.7 535.7,431.5 537.6,430.8 C539.5,430.2 542.2,429 543.6,428.3 C545,427.6 551.2,425.6 557.4,423.9 C567.7,421 569.2,420.9 576.4,421.7 C583,422.5 586.1,423.6 598.3,429.7 C613.2,437.2 616.6,440.2 616.6,446.3 C616.6,447.8 617.4,450.2 618.5,451.6 C620.3,454.2 622.3,468.7 621.7,474.5 C621.6,475.7 622,478.6 622.7,481 C623.3,483.4 623.8,487 623.7,489.1 C623.7,491.2 624,493.8 624.6,494.7 C625.1,495.7 626.9,501.6 628.5,507.9 C630.1,514.2 632.2,521 633,523 C634.1,525.6 634.6,530.5 634.7,539.5 C634.8,546.5 635.3,553.1 635.8,554 C636.6,555.6 637.3,569.7 637.7,593.3 C637.8,598.1 637.2,603.5 636.3,606.8 C635.1,610.6 634.6,617.2 634.4,628.6 C634.3,637.6 633.9,645.1 633.6,645.3 C633.3,645.5 633.2,656.1 633.3,669 C633.7,703.1 633.5,713.6 632.4,715.4 C632,716 631.4,720 631,724.4 C630.7,728.7 629.7,733.8 629,735.6 C627.5,739.4 626.4,748.9 626.5,756.7 C626.7,763.3 624.9,776.8 623.1,782.3 C622.2,785.2 622,790.6 622.3,801.8 C622.7,814.8 622.5,819.1 620.8,827.8 C617.8,842.9 617.5,845.6 618.6,846.3 C619.8,847 620,848.9 618.9,848.6 C618.4,848.5 616.7,849.1 615,850.1 C613.3,851 611.6,851.4 611.3,851.1 C610.9,850.8 610.1,851 609.3,851.6 C608.5,852.3 607.5,852.3 606.6,851.8 Z" id="Path"></path>
            </g>
        </g>
    </g>
</svg>