<?xml version="1.0" encoding="UTF-8"?>
<svg width="517px" height="407px" viewBox="0 0 517 407" version="1.1" xmlns="http://www.w3.org/2000/svg" xmlns:xlink="http://www.w3.org/1999/xlink">
    <title>Path</title>
    <g id="Page-1" stroke="none" stroke-width="1" fill="none" fill-rule="evenodd">
        <g id="2032972" transform="translate(-685.000000, -446.000000)" fill="#000000" fill-rule="nonzero">
            <g id="Group" transform="translate(601.400000, 427.300000) scale(-1, 1) rotate(-180.000000) translate(-601.400000, -427.300000) translate(0.400000, 0.800000)">
                <path d="M976.5,407.3 C975.6,406.4 929.8,404.5 920.1,404.9 C910.2,405.4 892.5,404.7 890,403.8 C888.6,403.2 886.4,402.8 885,402.8 C883.7,402.8 881.8,402.4 880.8,401.9 C878.2,400.5 866,398.6 857.8,398.2 C853.7,398.1 849,397.5 847.3,397 C845.5,396.5 841.2,396.2 837.6,396.3 C834,396.4 830.2,396.1 829.1,395.7 C826.5,394.8 813,393.5 804.1,393.3 C800.3,393.2 784.7,392.8 769.5,392.4 C750.2,391.8 741.2,391.9 739.8,392.7 C738.3,393.5 736.5,393.4 732.9,392.4 C730.3,391.6 725.4,390.2 722.1,389.3 C718.8,388.4 714.1,386.7 711.6,385.5 C709.2,384.3 706.7,383.3 706.2,383.3 C704.5,383.3 704.4,380.2 705.9,378.6 C707.1,377.4 707.2,376.8 706,374.7 C705.3,373.4 705,371.3 705.3,370.1 C705.6,368.9 705.1,366.5 704.3,364.9 C703.4,363.1 703.2,361.6 703.7,361.2 C704.2,360.9 704.6,359.2 704.6,357.5 C704.6,355.7 705,352.8 705.5,351.1 C706.3,348.5 706.1,347.4 704.5,345.4 C703.2,343.7 703,342.8 703.8,342.6 C704.6,342.3 704.3,340.8 702.8,337.7 C701.6,335.2 700.4,331.8 700.2,330.1 C700.1,328.4 699.2,326 698.2,324.7 C697.3,323.4 696.6,320.4 696.6,318 C696.6,315.7 696,312.7 695.2,311.5 C694.4,310.3 693.5,307.3 693.1,304.8 C692.2,297.3 692,296.6 690.5,295.4 C688.6,293.9 688.2,287.5 688.9,269.8 C689,267.9 688.7,265.3 688.3,264.2 C687.7,262.5 688,261.9 689.7,261.5 C690.8,261.2 691.6,260.5 691.3,260.1 C690.5,258.9 692.6,253 694.9,249.8 C696.9,246.9 697.1,244 695.4,240.1 C694.8,238.6 694.1,236.2 694,234.8 C693.8,233.5 691.6,230.4 689.1,228 C684.2,223.1 684.1,222.8 685.8,216.4 C686.8,212.7 686.7,211.4 685.6,209.3 C684.5,207.2 684.5,206.5 685.4,205.9 C686.1,205.5 686.7,204.3 686.7,203.2 C686.6,202.2 686.6,199.8 686.6,197.9 C686.5,196.1 687,194 687.5,193.5 C688.1,192.9 688.6,191.5 688.6,190.3 C688.6,189.2 689.7,186.6 691.2,184.5 C693.5,181.1 693.6,180.6 692.2,179.2 C690,177 690.2,175.9 693,175.2 C694.8,174.8 695.5,173.8 696,170.7 C696.3,168.6 697.1,166.8 697.7,166.8 C698.3,166.8 698.4,166.2 697.8,165.2 C697.3,164.2 697.2,162 697.7,159.9 C698.3,157.3 698.1,155.9 697,154.7 C696.2,153.8 695.2,151.4 694.9,149.4 C694.4,146.3 694.6,145.8 696.4,145.8 C698.7,145.8 703,137.7 704.1,131.1 C704.7,127.6 704.4,126.6 702.4,124.6 C699.4,121.7 697.4,117.8 698,116.2 C698.3,115.5 697.8,114.4 697,113.8 C696.2,113.1 695.6,112.1 695.6,111.6 C695.6,111.1 694.6,109.4 693.5,107.8 C692.3,106.2 691.4,103.7 691.5,102.1 C691.6,100.6 691.7,98 691.7,96.5 C691.7,94.9 692.3,92.6 693.1,91.4 C695.5,87.9 696,82 694.2,79.3 C692,75.9 692.2,75 695.5,73 C697.8,71.6 698.2,70.9 697.5,69.5 C696.8,68.4 697,66.9 698,64.9 C698.8,63.4 699.3,61.8 699,61.5 C698.7,61.2 699.2,59.3 700,57.3 C700.9,55.3 701.3,53.2 701.1,52.7 C700.8,52.3 700.3,48 700,43.3 C699.6,35.3 699.7,34.4 702.3,29.8 C703.8,27 705.7,24.8 706.4,24.8 C707.2,24.8 707.4,24 707,22.3 C706.3,19.6 708.5,13.7 710.1,14 C710.6,14.1 712.4,13.6 714.1,12.9 C716.6,11.8 718.1,12.1 726.1,14.9 C738.3,19.2 746,20 808.5,22.8 C827.9,23.6 833.1,23.6 833.7,22.6 C834.1,21.9 834.8,21.7 835.2,22 C835.5,22.4 837.1,22.1 838.7,21.3 C840.6,20.3 844.8,19.8 851.8,19.8 C857.5,19.7 864.1,19.2 866.6,18.7 C869.1,18.1 874.3,17.3 878.1,16.8 C882,16.4 886.7,15.6 888.6,15 C892.1,13.9 938.5,13.1 965.1,13.7 C982.6,14 1010,12.2 1015.4,10.3 C1019.1,9 1022,8.9 1035.7,9.9 C1049.2,10.8 1053.2,10.7 1060.4,9.5 C1075.8,6.8 1135.1,4.7 1161.9,5.9 C1170.1,6.3 1170.9,6.1 1172.6,4 C1174.9,1.3 1179.8,0.1 1181.3,2 C1182.7,3.7 1184.6,11.9 1184.6,16 C1184.6,17.8 1185.4,20.7 1186.4,22.5 C1192.3,33.3 1194.1,35.8 1197.2,37.3 C1201.4,39.3 1202.5,42.9 1200.3,46.8 C1199.4,48.3 1198.9,49.8 1199.3,50.2 C1199.6,50.5 1199.1,51.7 1198.1,52.8 C1196.5,54.5 1196.3,56.3 1196.5,63.4 C1196.6,68.1 1197.1,72.9 1197.5,74.1 C1198,75.4 1198.2,77.7 1198,79.3 C1197.8,81 1197.7,84.6 1197.8,87.3 C1198.3,105 1198.2,106.1 1194,113.4 C1189,122.3 1187.8,125.4 1187.7,130 C1187.6,132.1 1187,134.1 1186.2,134.5 C1184.6,135.4 1183.3,149.8 1184.9,149.8 C1185.5,149.8 1185.5,150.3 1184.8,151.1 C1183.8,152.3 1184.8,162.6 1186.1,164.8 C1186.5,165.4 1187,169.6 1187.3,174.1 C1187.5,178.6 1188,185.7 1188.3,189.8 C1189.2,203.1 1189.3,207.8 1188.7,207.8 C1188.4,207.8 1188.1,210.4 1188,213.6 C1187.9,218.7 1187.2,223.3 1186.2,226.3 C1185.1,229.5 1187.5,243 1190.2,248.4 C1192.5,253.2 1193.1,255.8 1193.3,262.3 C1193.5,266.7 1194.2,276.8 1194.9,284.8 C1196.2,299.5 1195.7,310 1193.5,313.5 C1192.6,315 1192.8,316.2 1194.4,319.4 C1196.1,322.7 1196.2,324 1195.4,328.3 C1194.9,331.1 1194.3,336.5 1194.2,340.3 C1194,344.2 1193.6,350.7 1193.2,354.9 C1192.6,361.8 1192.8,362.6 1194.7,364.4 C1195.9,365.4 1197.4,367.4 1198.1,368.8 C1199.8,372.2 1199.2,381.9 1197.2,383.4 C1196.3,384 1195.6,385 1195.6,385.6 C1195.6,387.6 1188.5,389 1172.1,390.2 C1170.5,390.3 1167.3,390.9 1165.1,391.5 C1159.4,393.2 1150.6,394.1 1139.4,394.1 C1132.3,394.1 1129.9,394.4 1130.2,395.3 C1130.7,396.6 1124.7,398.2 1112.3,399.9 C1104.6,400.9 1097.2,400.4 1095,398.7 C1094.3,398.1 1093.5,398.3 1092.8,399 C1092.1,399.9 1087.9,400.4 1079.9,400.6 C1073.4,400.8 1065.4,401.4 1062.1,402 C1055.6,403.2 1051,403.2 1043.1,402.2 C1039.1,401.7 1037.7,401.9 1036.7,403.2 C1035.9,404.2 1033.7,404.8 1031.2,404.9 C1029,405 1026,405.3 1024.6,405.7 C1023.2,406.1 1020.1,405.9 1017.6,405.3 C1014.1,404.4 1012.3,404.4 1009.6,405.4 C1004.8,407.1 1000.6,407.1 998.6,405.3 C997.1,404 996.7,404 994.8,405.8 C992.4,408 990,408.4 989.4,406.6 C989.1,405.8 988.3,405.7 987,406.3 C985,407.2 977.1,408 976.5,407.3 Z" id="Path"></path>
            </g>
        </g>
    </g>
</svg>