<?xml version="1.0" encoding="UTF-8"?>
<svg width="494px" height="333px" viewBox="0 0 494 333" version="1.1" xmlns="http://www.w3.org/2000/svg" xmlns:xlink="http://www.w3.org/1999/xlink">
    <title>Path</title>
    <g id="Page-1" stroke="none" stroke-width="1" fill="none" fill-rule="evenodd">
        <g id="2032972" transform="translate(-684.000000, -44.000000)" fill="#000000" fill-rule="nonzero">
            <g id="Group" transform="translate(601.400000, 427.300000) scale(-1, 1) rotate(-180.000000) translate(-601.400000, -427.300000) translate(0.400000, 0.800000)">
                <path d="M759.5,808.8 C758.7,808.3 754.4,807.4 750,806.9 C739.6,805.5 738.8,805.3 738,804.5 C737.6,804.1 735.5,803.8 733.4,803.8 C730.9,803.8 728.9,803.1 727.6,801.8 C726.5,800.7 725.6,800 725.6,800.3 C725.6,800.5 724.4,800.3 723,799.8 C721.5,799.2 719.9,799.1 719.2,799.6 C717.4,801 702.6,801.1 702.6,799.8 C702.6,799.1 701.4,798.9 699.4,799.2 C697.6,799.5 695.7,799.3 695.1,798.9 C694.6,798.4 692.1,797.8 689.6,797.5 C687.1,797.2 685,796.9 684.9,796.9 C683.8,796.6 685.1,793.7 687.1,791.8 C688.5,790.5 689.6,788.5 689.6,787.4 C689.6,786.2 690.5,783.8 691.6,782 C693.5,778.8 693.9,774.7 692.3,773.2 C691,771.8 691.6,765.7 693.5,761 C694.6,758.4 695.7,755 696.1,753.3 C696.5,751.7 697.5,749.5 698.3,748.5 C699.2,747.6 699.7,746.5 699.3,746.2 C698.5,745.3 701.8,736.4 703.4,735.2 C704.3,734.6 704.7,733.4 704.3,732.6 C704,731.7 704.2,729.3 704.6,727.2 C705.3,724.4 705.2,723 704.3,722.3 C703.6,721.8 703,719.3 702.9,716.8 C702.8,712.4 702.3,707.1 701.2,697.8 C700.9,695.2 701.4,690.6 702.3,686.9 C703.7,681.4 703.7,680.3 702.5,679.4 C699.5,677.1 698.5,675 699.4,673.1 C699.9,672.1 701,669.9 701.9,668.1 C702.8,666.3 703,664.8 702.5,664.6 C701.9,664.4 702.1,663.1 703,661.4 C703.8,659.8 704.2,658 703.9,657.3 C703.7,656.5 704.4,655.5 705.5,654.9 C706.6,654.3 707.3,653.2 707,652.4 C706.7,651.6 707.3,650.4 708.3,649.7 C711.2,647.6 711.9,645.9 710.5,644.2 C709.9,643.4 709.6,642.5 709.9,642.1 C710.3,641.8 710.1,640.9 709.6,640.3 C708.1,638.5 707.5,622.7 708.8,621 C710,619.6 710.5,616.5 711,608.5 C711.1,605.9 711.8,603.2 712.4,602.6 C713.1,601.9 713.6,600.6 713.6,599.6 C713.6,598.1 714.7,595.1 717.9,588.1 C718.4,587 718.5,585.5 718.2,584.9 C717.8,584.3 717.8,583.2 718.3,582.6 C719.5,580.6 719.6,574.7 718.4,570 C717.6,567 717.6,565 718.4,563.4 C719.2,561.6 719.1,560.7 718,559.6 C716.8,558.5 716.8,557.5 717.6,555.4 C719.1,551.4 718.9,550.8 715.6,549.7 C712.1,548.4 712.2,548.8 714,545.2 C714.8,543.7 715.3,542.1 715.1,541.7 C714.8,541.3 715.3,540.5 716.1,539.8 C716.9,539.1 717.6,537.8 717.6,536.9 C717.6,535 718.9,531.9 722.9,524 C724.4,521 725.6,517.6 725.6,516.4 C725.6,515.1 726.2,512.8 727,511.2 C727.9,509.6 728.3,506.4 728.2,503.9 C728,501.5 728.2,498.3 728.6,496.7 C729.3,494.4 729,493.7 727.1,492.4 C721.4,488.7 723.9,485 735.2,480.6 C740.7,478.5 742.4,478.3 759.1,478.5 C769,478.6 780.5,479.2 784.6,479.7 C802.3,482.1 851,484 886.6,483.8 C931.2,483.5 930.6,483.4 937.3,485.7 C944.5,488.1 950.2,488.4 951.3,486.4 C952.4,484.5 964.4,478.5 965.6,479.3 C966.1,479.6 966.6,479.5 966.6,479 C966.6,476.2 978.6,477.1 993.1,480.9 C997.5,482.1 1029.6,482.2 1051.6,481.1 C1059.6,480.7 1069,480.5 1072.6,480.5 C1089.7,480.8 1094.5,480.8 1113.6,480.4 C1124.9,480.2 1138.9,480.5 1144.7,481.1 C1153.9,482 1155.9,481.9 1160.9,480.3 C1166.3,478.6 1166.7,478.6 1168.5,480.2 C1170.9,482.4 1172.8,490.2 1172,494.8 C1171.7,496.7 1171.3,504.2 1171.2,511.3 C1171.1,523.7 1171,524.5 1168.4,528.3 C1165.5,532.5 1164.9,536.6 1166.7,539.9 C1167.3,541 1167.8,545.2 1167.8,549.2 C1167.8,556 1168.1,556.9 1171.2,560.8 C1173.1,563.2 1174.6,565.8 1174.7,566.7 C1174.7,567.6 1175,569.2 1175.2,570.3 C1176.2,574.8 1176.6,584.1 1175.8,585.2 C1174.3,587.1 1173.8,591.7 1174.7,595.7 C1177.2,606.8 1178,618.9 1176.7,624.6 C1175.2,630.7 1174.7,633.5 1174,641.8 C1173.6,645.4 1173,648.8 1172.7,649.3 C1172.3,649.9 1171.9,653.1 1171.7,656.5 C1171.5,661.5 1172,664 1174.2,668.8 C1175.6,672.1 1176.6,675.7 1176.3,676.8 C1176,677.9 1176.1,679 1176.5,679.2 C1177.5,679.8 1176.7,705.6 1175.6,709.3 C1175.1,711 1174.4,715.1 1174.1,718.5 C1173.6,723.2 1172.8,725.4 1170.8,727.5 C1168.6,729.9 1168.3,731.1 1168.4,736.8 C1168.5,740.4 1168.1,744 1167.6,744.8 C1167,745.8 1167.4,747 1169,748.8 C1172,752 1174.5,760.3 1174,764.8 C1173.7,766.7 1173.4,770.1 1173.2,772.3 C1173,774.4 1172.4,776.4 1171.7,776.6 C1171.1,776.8 1170.6,777.6 1170.6,778.4 C1170.6,779.2 1169.9,780.1 1169.1,780.5 C1168.2,780.8 1166.9,782.3 1166.1,783.8 C1163.8,788.3 1161.7,789.9 1159,789.2 C1157.6,788.8 1155.6,789.2 1154.3,790 C1153.1,790.8 1150,792 1147.4,792.6 C1144.9,793.3 1141.5,794.3 1139.9,794.9 C1135.3,796.8 1134.2,796.9 1108.6,797.2 C1095.1,797.3 1082.1,797.9 1079.6,798.5 C1073.7,800 1043.3,799.9 1042.4,798.5 C1042,797.8 1041.3,797.8 1040.4,798.4 C1038.5,799.9 1034.6,799.9 1034.6,798.5 C1034.6,797.6 1032.6,797.2 1028.7,797.1 C1023.8,796.9 1022.1,797.4 1019,799.4 C1015.2,802 1008.6,803.4 1008.6,801.6 C1008.6,801 1008,800.8 1007.3,801.1 C1006.5,801.4 1003.8,801.2 1001.1,800.7 C998.4,800.2 996,800.1 995.7,800.6 C995.4,801 992.9,801.3 990.1,801.2 C987.4,801.1 983.8,801.7 982.3,802.5 C979.7,803.8 978.5,803.7 970.3,801.7 C963.1,800 957.5,799.4 944.6,799.2 C935.5,799 920.7,798.6 911.6,798.3 C902.5,798 887.5,797.6 878.1,797.4 C868.8,797.2 857.7,797 853.6,796.8 C849.5,796.7 844.5,796.9 842.6,797.2 C834.1,798.5 804.2,797.9 801.7,796.3 C800.5,795.6 786.9,800.7 782.3,803.5 C779.6,805.2 776.5,806 771.3,806.3 C766.5,806.7 763.7,807.3 763,808.3 C761.7,810 761.6,810 759.5,808.8 Z" id="Path"></path>
            </g>
        </g>
    </g>
</svg>