<?xml version="1.0" encoding="UTF-8"?>
<svg width="247px" height="81px" viewBox="0 0 247 81" version="1.1" xmlns="http://www.w3.org/2000/svg" xmlns:xlink="http://www.w3.org/1999/xlink">
    <title>Shape</title>
    <g id="Page-1" stroke="none" stroke-width="1" fill="none" fill-rule="evenodd">
        <g id="Artboard" transform="translate(-1180.000000, -2060.000000)" fill="#000000" fill-rule="nonzero">
            <g id="PRODUCTION" transform="translate(360.000000, 165.000000)">
                <g id="JOIN_DISCORD" transform="translate(0.000000, 1486.000000)">
                    <g id="Name" transform="translate(33.000000, 82.000000)">
                        <g id="JOIN-US" transform="translate(787.000000, 327.000000)">
                            <path d="M245.996677,13.9706354 C246.092921,13.4656924 246.039744,13.2230758 245.837145,13.2427855 C245.465309,13.3005066 245.602397,14.0551054 245.081341,13.9037633 C245.097719,13.6968118 245.107424,13.4968994 245.119556,13.2941714 C245.149279,13.2329306 245.171116,13.1808408 245.171722,13.1512763 L245.142,12.9408052 C245.196592,11.8307285 245.182641,10.7931552 245.024929,9.91325933 L245.416176,9.94211992 C245.466522,9.40925495 245.895377,9.40995887 245.934198,8.8644234 C245.629087,8.78840039 245.671548,9.1840016 245.518082,9.31211444 C245.459243,8.94326207 245.009158,9.29170086 244.999452,9.19456035 C245.570855,8.62157213 245.719468,6.96595998 244.939401,6.5590961 C245.030995,7.19262116 245.340353,7.88738698 245.103178,8.40476577 C244.871463,8.08448366 244.582123,7.81769922 244.642781,7.17291149 C244.224238,7.17854283 244.274584,6.67313062 244.299454,6.19235549 C244.206647,6.22121607 244.138103,6.22332782 244.078051,6.21628866 C243.931864,5.4652095 243.802055,4.79860036 243.799629,4.79930428 C243.671033,4.82182961 243.911847,3.99965487 243.672246,4.10172279 C243.665574,4.10453846 243.494517,4.08553271 243.234899,4.05526429 L243.222161,3.96445903 L243.202144,3.96445903 C243.202144,3.99331962 243.201537,4.0221802 243.201537,4.05104079 C243.193045,4.05033687 243.184553,4.04892904 243.176061,4.04822512 C243.155437,4.01866062 243.136633,3.99895095 243.119648,3.96445903 L243.202144,3.96445903 C243.202144,3.79692685 243.205177,3.63221033 243.205177,3.46467815 L243.063843,3.71175293 L242.846079,2.71500683 C242.855178,2.74668309 242.872769,2.86846068 242.893999,3.02754586 C242.861244,2.8945056 242.775109,2.77624759 242.67017,2.71289508 L242.381436,2.71007942 C242.36991,2.7178225 242.358385,2.72063817 242.346254,2.730493 C242.35232,2.72556558 242.359599,2.7178225 242.365058,2.71007942 L242.075111,2.70585592 C242.0096,2.86986851 241.952581,3.0711887 241.7609,3.08667487 L241.763933,3.41399615 C241.546776,3.20704463 241.409688,2.96067377 241.409688,2.69952067 L240.930486,2.69459325 C240.932913,2.73894 240.932913,2.79666117 240.92624,2.89168993 L240.578061,2.70233633 C240.618096,2.70444808 240.653884,2.69952067 240.68482,2.69036975 L239.632397,2.68051491 L239.993314,3.0585182 L240.163158,2.76920842 C240.201372,3.24435222 239.896261,3.78496027 239.443142,3.55900299 C239.384304,3.47664474 239.31212,3.41540398 239.235691,3.35768281 C239.202328,3.54703641 239.187164,3.7441331 239.198082,3.9714982 L240.288721,3.96938645 C240.289327,3.98064912 240.289934,3.9926157 240.29054,4.00387837 C240.283868,4.03837029 240.275982,4.07427004 240.243227,4.09397971 C240.224423,4.04822512 240.216537,4.0179567 240.207438,3.9841687 L239.646348,3.97853737 L239.65302,4.01021362 C239.587509,4.37484249 239.209001,4.65922485 239.000943,4.6909011 C238.999123,4.42552449 239.020353,4.26221581 239.056142,4.09397971 C238.918447,4.1692988 238.766801,4.44875374 238.920873,4.52407283 C238.103805,4.58812926 236.515161,4.54448642 235.887346,3.48157215 C235.781801,3.50268966 235.832754,3.60616542 235.88492,3.60686933 C235.374176,4.07427004 233.975393,3.31755956 233.474962,4.07497396 C233.444632,4.05174471 233.417336,4.03414679 233.389433,4.0137332 C233.374875,3.84408927 233.243247,3.80678168 233.259018,3.60194192 C233.208671,3.59912625 233.174096,3.60616542 233.14316,3.62305942 C233.169243,3.57448916 233.161964,3.51676799 233.090994,3.44708023 C232.946627,3.44708023 232.795587,3.44778415 232.643941,3.45200765 C232.593595,3.3949904 232.533543,3.36753764 232.45954,3.44708023 C231.643684,3.46890165 230.789614,3.4583429 230.146635,3.13735687 C229.614661,3.2774363 229.071161,3.2732128 228.522809,3.2605423 C228.268044,3.13454121 228.012065,3.02754586 227.739103,2.99727744 C226.809209,2.90999177 225.837462,3.6645905 224.922733,3.0289537 C224.809302,3.06555737 224.693444,3.09301012 224.579406,3.12327854 C224.38348,2.67066008 223.699859,2.64250341 223.314678,2.59182141 C220.721532,2.25886879 235.816481,2.40317172 233.217875,2.66995616 C233.075328,2.77061626 233.211203,2.88253902 233.28096,2.96489727 C233.15297,2.98038344 233.026194,2.99516569 232.900632,3.01839494 C231.15003,2.76216925 229.552287,2.39472472 227.93938,2.69388933 L227.907231,3.16199396 C227.734355,3.26758147 227.593627,3.04655161 227.557232,2.90154477 C227.524477,2.671364 227.608792,2.50242398 227.773783,2.34193097 C227.565118,2.34193097 227.507493,2.53832373 227.539035,2.8438236 C226.634618,2.44540673 225.050827,3.92996711 224.321106,2.5495864 C224.189478,2.59745274 224.31686,2.77132017 224.418766,2.79806901 C223.861922,3.31615172 223.124316,3.39287865 222.346675,3.34078881 C222.144076,2.88253902 222.027005,2.27435496 221.494425,2.45314981 C221.461063,2.76076142 221.378567,3.01557928 221.253611,3.2183073 C221.0868,3.19578196 220.923022,3.17536838 220.759851,3.15706654 C220.762884,3.04021636 220.754392,2.92618185 220.693127,2.84171185 C220.492348,2.84593535 220.497807,2.98671869 220.519037,3.13594904 C220.464445,3.13102162 220.409246,3.12750204 220.355866,3.12327854 C220.358293,3.00079703 220.371638,2.86775676 220.358293,2.76357709 C220.142349,2.80229251 220.169645,2.93814844 220.199974,3.11694329 C219.923978,3.10849629 219.661328,3.12116679 219.418087,3.17396054 C219.086892,2.89661735 219.341658,2.60449191 218.938279,2.81144343 C218.826668,2.62912899 218.823028,2.49749656 218.929181,2.3095508 L218.645906,2.31658996 C218.505785,2.43062447 218.676235,2.50383181 218.560984,2.82200218 C218.181869,2.91491919 218.019911,2.71289508 217.708733,2.71711858 C217.711766,2.40598739 217.877364,2.32503696 217.694782,2.09063269 C217.392097,2.02587235 217.408474,2.33559572 217.222253,2.10330319 C217.082132,2.41584222 217.552235,2.46300464 217.509167,2.22085729 C217.695995,2.47708298 217.542529,2.74949875 217.524332,2.97264036 C216.718182,2.7262695 215.702153,3.3070008 215.150162,2.40669131 C215.263593,3.47242124 214.398604,2.26379621 214.021309,2.68473841 C214.027375,2.80792384 214.138986,2.77976717 214.212989,2.80651601 C213.586995,2.74105175 212.581885,3.01135578 211.968022,2.57703915 C211.987432,3.19226238 212.000777,3.81241302 212.012302,4.43608324 C211.777554,4.3290879 211.548872,4.20871814 211.335355,4.05948779 C211.304419,4.03555462 211.266811,4.0264037 211.231629,4.00810187 C211.181889,3.8370501 211.215858,3.7610271 211.318977,3.61953983 C210.773658,3.03176936 210.057282,2.92195835 208.842294,2.99727744 C207.422281,3.0838592 205.624366,3.1134237 205.089358,3.46186249 C203.595948,3.41258831 203.161634,3.34501231 201.40618,2.99375786 C201.081657,3.50268966 194.284276,2.74386742 193.686791,3.15002737 C192.964956,2.99798136 192.505165,3.71668034 191.477005,3.46115857 C191.24711,3.72935084 190.874667,3.91096136 190.467043,4.03977812 C190.428221,4.00176662 190.390613,3.96516295 190.351792,3.93067103 C185.710817,0.0295645027 184.248343,3.23308955 178.617423,2.48834565 C178.173403,1.71544507 177.133718,1.60422623 176.223236,1.94914543 C176.223236,1.84003834 176.21717,1.74148999 176.162577,1.69432757 L175.761019,1.69432757 C175.694294,1.84778142 175.677917,2.05262119 175.643341,2.24479046 C175.508073,2.33348397 175.38069,2.43414406 175.264833,2.54325115 C173.294648,2.57211174 171.621689,2.37923855 169.870481,2.08007394 C169.976633,1.89142426 170.433391,2.11104628 170.469786,1.84918925 C169.777673,1.69432757 169.191713,2.62631333 168.662772,1.92943576 C168.898126,1.8217365 169.400378,1.93225143 169.601157,1.92943576 C169.160171,1.31632429 168.213293,1.97800602 167.593364,1.92943576 C167.502983,1.87312242 167.470227,1.75345658 167.459309,1.61267323 C165.275606,1.93084359 162.647884,1.86537934 160.023801,2.08007394 C159.826662,2.19551629 160.200317,2.48482606 159.893992,2.46652423 C159.766003,2.45385373 159.852745,2.20677895 159.756904,2.1582087 C158.724498,2.04276635 158.045124,2.34545055 157.346339,2.62138591 C157.062458,2.35812105 156.890795,2.58619007 156.679097,2.62138591 C156.219306,2.69600108 155.743138,2.43766364 155.338546,2.46582031 C155.117749,2.48412215 154.906658,2.69952067 154.667057,2.69952067 C152.659264,2.68192275 150.604157,2.64391124 148.528427,2.60730757 C148.589692,2.59252532 148.650957,2.55592165 148.699483,2.51016706 C148.698877,2.50523965 148.697664,2.5031279 148.695237,2.4989044 L148.367682,2.51861407 C148.366469,2.53902765 148.364042,2.55451382 148.35919,2.55873732 C148.38042,2.58407832 148.404683,2.59886057 148.431373,2.60660366 C148.023749,2.59886057 147.617337,2.59182141 147.209106,2.58619007 L148.367682,2.51931798 C148.373748,2.4024678 148.323401,2.07444261 148.302171,2.10963844 C148.315516,2.25886879 148.274874,2.24549437 148.271842,2.34263488 C148.222102,1.93577101 146.715347,2.30743905 146.66682,2.25605312 C146.654082,2.10189536 146.614047,2.17721445 146.581292,2.18003012 C146.54247,2.16947137 146.582505,2.00053135 146.548536,1.97800602 C146.54429,2.12090111 146.518207,2.1877732 146.481812,2.21874554 C146.284672,2.1877732 146.267081,2.32081346 146.07904,2.25957271 C146.015955,2.08007394 146.056597,2.03995069 145.993512,1.85904409 C145.854604,2.06106819 145.775142,1.79569158 145.611364,1.89212817 C145.613184,2.07866611 145.656251,2.15328128 145.629561,2.21170637 C145.593166,2.09837578 145.580428,1.78020541 145.525835,1.81821692 C145.215871,1.89564776 144.891955,1.71826074 144.740916,1.89494384 C144.762146,1.89212817 144.763359,2.02446452 144.726358,2.00897835 C144.719079,1.80413858 144.669945,1.83299917 144.60868,1.72881949 C144.611713,1.85341275 144.628698,2.02728019 144.606861,2.05262119 C144.523759,1.91113393 144.390917,1.97589427 144.355735,2.25534921 C144.339357,2.07092302 144.307208,2.02587235 144.263534,2.07162694 C144.005129,2.16595178 143.860156,2.05543686 143.676361,2.07585044 C143.582947,2.08640919 143.499845,2.27505888 143.393086,2.07514652 C143.370036,2.13357161 143.399152,2.39050122 143.397332,2.53198848 C143.392479,2.53198848 143.386413,2.53198848 143.380348,2.53128457 C143.370036,2.24338262 143.334247,2.15539303 143.295426,2.11175019 C143.296639,2.40598739 143.346379,2.31307038 143.358511,2.5200219 C143.354264,2.52565323 143.351232,2.52706107 143.347592,2.53198848 C143.272376,2.53198848 143.195946,2.53128457 143.119516,2.52987673 C143.098286,2.4989044 143.075842,2.46441248 143.049153,2.42076964 C143.029742,2.24197479 143.063711,2.13920295 143.030955,2.10400711 C142.82229,2.2004437 142.593608,2.23704737 142.304874,2.15961653 C142.307907,2.47919473 142.35886,2.38205422 142.382517,2.52283757 C142.33763,2.52283757 142.291529,2.52213365 142.246642,2.52213365 C142.245429,2.51650232 142.244216,2.51368665 142.244216,2.50664748 C142.258167,2.25042179 142.317612,2.68896191 142.291529,2.27153929 C142.261807,2.05684469 142.178098,2.27646671 142.154441,1.99982743 C142.222379,1.94210626 142.068306,1.73937824 142.13685,1.68236099 C142.865358,1.77246233 143.464056,1.47329772 144.160415,1.68236099 C144.538317,1.46766639 144.844642,1.69080799 145.274103,1.69714324 C145.505818,1.70066282 145.774535,1.54157764 146.00625,1.74852916 C146.152437,1.47963297 146.454516,1.80765817 146.581292,1.53313064 C146.40053,1.4261353 146.276787,1.16850177 146.112402,1.49300739 C145.891606,1.31421254 145.731467,1.16498219 145.539787,1.38319638 C145.353566,1.12204327 145.155213,1.2790167 144.92653,1.2874637 C144.599582,1.3001342 144.275059,0.898197749 144.016654,1.30224595 C143.963275,0.87004108 143.798891,1.33814571 143.722461,1.0896631 C143.676967,1.14316077 143.646638,1.24804437 143.615096,1.34729662 C143.604784,1.22270336 143.601751,1.04531635 143.576881,1.03616543 C143.447072,1.27127362 143.207471,0.985483424 143.007905,1.35644754 C142.969084,1.00941659 142.96787,1.31843604 142.902966,1.28957545 C142.830782,0.992522591 142.694301,1.27197753 142.647594,1.05939468 C142.648201,1.06502601 142.595428,1.19806628 142.574197,1.19525061 C142.416486,1.18187619 142.127145,1.00941659 142.008254,1.19032319 C141.993696,1.21284853 141.980352,1.0938866 141.982171,1.09247877 C141.967007,1.10444535 141.970646,1.20088194 141.968826,1.20721719 C141.951842,1.2325582 141.94335,1.10937277 141.94335,1.10937277 C141.79413,1.12556285 141.69829,1.20088194 141.606089,1.2367817 C141.430786,1.29802245 141.222728,1.01364009 141.072902,1.10937277 C141.008604,1.15019994 140.970389,1.21707203 140.926715,1.38249246 C140.91155,1.19595453 140.878188,1.15231169 140.834514,1.19877019 C140.245521,1.14808819 139.797255,1.7710545 139.369007,1.74641741 C139.360515,1.62041632 139.349596,1.49863872 139.318661,1.55143248 C139.251936,1.44654888 139.165195,1.59507531 139.069355,1.42683921 C139.040845,1.54157764 139.046911,1.79428375 139.012336,1.88086551 C138.848558,1.6408299 138.73634,1.92098876 138.580448,1.71966858 C138.51433,1.66335524 138.556184,2.02446452 138.49128,1.96744726 C138.440327,1.59577923 138.38998,1.99630785 138.315371,1.70981374 C138.319617,1.89635167 138.29414,1.96322376 138.247433,1.94984935 C138.14492,1.74078608 138.066671,2.01390577 137.967191,1.62463982 C137.850727,1.91394959 137.682097,1.49863872 137.53591,1.89353601 C137.520745,1.76331141 137.500122,1.68658449 137.466759,1.70347849 C137.426725,1.69573541 137.428545,1.83933442 137.393363,1.8386305 C137.005149,1.52468364 136.565982,1.73937824 136.225688,1.52116406 C136.162604,1.76190358 136.11529,1.43669405 136.030975,1.69784716 C136.022483,1.57043823 136.013384,1.45006847 135.980629,1.50145439 C135.741634,1.65913174 135.57907,1.30224595 135.374044,1.60915365 C135.302468,1.2325582 135.260007,1.55354423 135.169019,1.57536565 C135.15992,1.4937113 135.157494,1.36489454 135.13869,1.36911804 C135.137477,1.45288413 135.149002,1.57818131 135.129591,1.58662831 C134.919106,1.13752944 134.657669,1.85200492 134.518761,1.58944398 C134.551516,1.60985757 134.564861,1.42754313 134.52786,1.36982196 C134.47812,1.60070665 134.367721,1.60070665 134.30221,1.77316625 C134.27916,1.46625855 134.217289,1.45429197 134.177861,1.28183237 C134.182107,1.55776773 134.128727,1.6070419 134.097185,1.74008216 C134.040166,1.64012598 133.98436,1.76823883 133.932801,1.68940016 C133.900652,1.64364557 133.901865,1.46133113 133.861224,1.49934264 C133.74476,1.72952341 133.537308,1.48174472 133.375957,1.56551081 C133.35048,1.57536565 133.366858,1.75697616 133.347447,1.79287592 C133.358972,1.36137496 133.258279,1.78513283 133.251607,1.50145439 C133.174571,1.76964666 133.082976,1.45288413 133.041122,1.79357983 C133.032023,1.71122157 133.03081,1.58310873 133.011399,1.5859244 C133.008367,1.72318816 132.995022,1.81258558 132.95984,1.81892083 C132.951348,1.69221582 132.941642,1.57184606 132.9101,1.62323198 C132.769979,1.63519857 132.514607,1.42824705 132.432718,1.89916734 C132.428472,1.79428375 132.42362,1.68728841 132.418767,1.5817009 C132.356895,1.66546699 132.321713,1.54368939 132.273793,1.52468364 C132.187052,1.81680908 132.042078,1.40149821 131.957763,1.74641741 C131.95291,1.63942207 131.968075,1.6154889 131.966862,1.52468364 C131.910449,1.56339906 131.893465,1.74993699 131.837053,1.78865241 C131.828561,1.64364557 131.835233,1.55284031 131.841299,1.46133113 C131.770935,1.35574362 131.843119,1.81188167 131.772148,1.70347849 C131.702391,1.69643932 131.63324,1.69855107 131.581074,1.55565598 C131.515563,1.49934264 131.558024,1.86045192 131.4913,1.80273075 C131.436101,1.61056148 131.471283,1.83792659 131.436707,1.93013968 C131.419723,1.91465351 131.408198,1.851301 131.406378,1.72741166 C131.365737,1.70910982 131.373016,1.88297726 131.355425,1.9604081 C131.316604,1.87945767 131.277782,1.62886332 131.276569,1.98856477 C131.304472,2.39613255 131.443986,1.96744726 131.4913,2.23423171 C131.432461,2.32926046 131.409411,2.25182962 131.396066,2.37571897 C131.480988,2.64391124 131.662963,2.19340454 131.747885,2.46722814 C131.620502,2.55732949 131.39,2.73260475 131.180729,2.56014515 C131.247453,2.60026841 131.234108,2.33841138 131.280209,2.5242454 C131.283241,2.28843329 131.208632,2.2088907 131.286274,2.19973979 C131.278995,1.91817309 131.231682,1.93999451 131.191041,1.91043001 C131.17163,1.67743357 131.138268,1.54580114 131.090954,1.51412489 C131.068511,1.62956723 131.038788,1.71122157 131.025443,1.85904409 C131.069117,1.70347849 131.107939,2.25816487 131.111578,1.93788276 C131.154646,1.95548068 131.0952,2.23704737 131.165564,2.24408654 C131.141301,1.77879758 131.223796,2.17228703 131.231075,2.3264448 C131.128563,2.41865789 131.089741,2.03783894 131.011492,1.97378252 C131.013312,2.09907969 131.029083,2.27365104 131.006639,2.30039988 C130.99936,1.96392768 130.960539,1.87593809 130.921111,1.79146808 C130.865305,2.3644563 130.737922,1.72529991 130.636016,1.78442891 C130.585063,1.90127909 130.694248,2.16102437 130.615392,2.22367295 C130.58749,2.22860037 130.573538,2.28772938 130.560193,2.34967405 C130.53229,2.18143795 130.469206,2.26590796 130.430384,2.18073403 C129.939051,2.32785263 129.461669,2.62842508 129.055865,2.45314981 C129.017043,2.44329498 129.017043,2.58830182 128.980648,2.58830182 C128.943647,2.28420979 128.907252,2.08148178 128.876316,2.08781703 C128.910891,1.63097507 129.064964,2.18988495 129.055865,1.59225965 C129.135934,1.60985757 129.185067,1.83792659 129.212363,1.85834017 C129.35855,1.80554642 129.447111,1.78090933 129.527787,1.64012598 C129.545985,1.79076417 129.529607,2.19692412 129.572674,2.16102437 C129.529607,1.81540125 129.624841,1.57466173 129.55751,1.41487263 C129.3355,1.69855107 129.041307,1.28887154 128.77077,1.58662831 C128.728309,1.33181046 128.549974,1.34096137 128.505086,1.57184606 C128.532989,1.6535004 128.565138,1.69010407 128.610025,1.64223773 C128.629436,1.70699807 128.668258,2.32292521 128.685848,1.9392906 C128.673717,1.9435141 128.659159,1.859748 128.680996,1.83299917 C128.714358,2.0279841 128.796247,1.55706381 128.830822,1.99349218 C128.796853,2.20607504 128.747113,2.3560093 128.714358,2.5749274 C128.67493,2.58548615 128.675537,2.29336071 128.62519,2.38909339 C128.557859,2.69107366 128.509939,2.55521774 128.394688,2.68755408 C128.324931,2.58548615 128.384983,2.42076964 128.33403,2.27857846 C128.341915,2.51931798 128.290356,2.95645027 128.227877,2.63898383 C128.208467,2.38838947 128.321898,2.66432483 128.272765,2.29969596 C128.170252,2.29758421 128.102315,2.42710489 128.042869,2.59674882 C128.038017,2.46089289 128.061067,2.44047931 128.048329,2.27153929 C127.952488,2.09696794 127.959161,2.77272801 127.917306,2.5326924 C128.017393,2.06036427 127.706215,2.61505066 127.678919,2.18918104 C127.681952,2.31940563 127.683772,2.44188714 127.647983,2.41373047 C127.390791,2.17791837 127.262196,2.59534099 127.032907,2.31095863 C126.993479,2.30039988 126.993479,2.44681456 126.955871,2.44540673 C126.874588,2.1666557 126.784814,2.45103806 126.690793,2.43273622 C126.596773,2.41443439 126.565231,2.45244589 126.490621,2.50383181 C126.416011,2.55310599 126.13213,2.28209804 126.0096,2.67347575 C126.005353,2.68051491 126.002321,2.68051491 125.998074,2.68333058 C125.993222,2.68333058 125.987763,2.68333058 125.98291,2.68262666 C125.951367,2.64461516 125.945908,2.41654614 125.899201,2.4989044 C125.821558,2.64461516 125.797295,2.53198848 125.733604,2.65165433 C125.724505,2.65095041 125.715406,2.64954258 125.705701,2.64883866 C125.445476,2.32362913 125.2265,2.46511639 124.921994,2.52283757 C124.85345,2.41513831 124.7843,2.32081346 124.690886,2.38909339 C124.664196,2.39965214 124.682394,2.58126265 124.661163,2.61505066 C124.652671,2.48693781 124.644179,2.36727197 124.611423,2.41795397 C124.511943,2.44822239 124.428841,2.3560093 124.339674,2.29828813 C124.183175,2.3644563 124.084908,2.55662557 123.932656,2.33207613 C123.888982,2.61575457 123.848947,2.40528347 123.801027,2.59534099 C123.765238,2.28843329 123.724597,2.32010955 123.711252,2.40950697 C123.68335,2.60167624 123.664546,2.18425362 123.630577,2.43836756 C123.573558,2.38205422 123.51108,2.48904956 123.448602,2.50172006 C123.356401,2.52213365 123.248429,2.39754039 123.16654,2.59956449 C123.153195,2.30321555 123.123473,2.87057243 123.116194,2.4024678 C122.87174,2.63053683 122.536906,2.44611064 122.271222,2.7009285 C122.21299,2.66010133 122.217236,2.63194466 122.139593,2.52987673 C122.01585,2.75513009 121.895746,2.67347575 121.787168,2.43766364 C121.72469,2.55099424 121.67677,2.45807723 121.617324,2.713599 C121.60216,2.58267049 121.580929,2.50594356 121.545747,2.52354148 C121.505713,2.53902765 121.534222,2.82059434 121.47417,2.76216925 C121.410479,2.53761982 121.336476,2.56366474 121.294015,2.82552176 C121.257013,2.71289508 121.23093,2.53621198 121.178157,2.54395507 C121.06048,2.73330867 121.040463,2.39261297 120.961607,2.7262695 C120.975558,2.20537112 120.828765,2.75653792 120.779025,2.78962201 C120.777812,2.65658174 120.801469,2.56296082 120.750516,2.58689399 C120.686218,2.5326924 120.681972,2.71923033 120.634658,2.73330867 C120.620707,2.60308407 120.598263,2.52635715 120.563081,2.54325115 C120.341071,2.53832373 120.182146,2.60660366 119.90797,2.5580334 C119.806671,2.1919967 119.676862,2.3813503 119.551299,2.3602328 C119.39844,2.33418788 119.226776,2.20185154 119.074524,2.20537112 C119.040555,2.2046672 119.010226,2.33629963 118.97929,2.34615447 C118.779117,2.40035605 118.577125,2.28702546 118.384838,2.33770747 C118.348443,2.35037797 118.328425,2.47567514 118.288997,2.48060256 C118.071234,2.50523965 117.85347,2.50101615 117.654511,2.4862339 C117.622968,2.7093755 117.524702,2.61575457 117.473748,2.55029032 C117.385794,2.722046 117.297233,2.82411393 117.206851,2.89309777 C116.670631,2.8902821 116.153215,2.88535468 115.666735,2.88042727 L115.665521,2.75794575 C115.451397,2.56929607 115.287619,2.70585592 115.121415,2.87268418 C114.933374,2.87057243 114.752612,2.86775676 114.576703,2.8649411 C114.57367,2.5453629 114.458419,2.14483428 114.268558,2.3475623 L114.066566,2.34193097 L114.068386,2.81003559 C114.00894,2.66925225 113.922199,2.71289508 113.834244,2.71007942 C113.908854,2.78751026 113.947675,2.91491919 113.975578,3.06485345 C113.926445,3.0923062 113.873672,3.11835112 113.825145,3.14721171 C113.701402,3.0754122 113.567954,3.02261845 113.486671,2.79595726 L113.774799,2.47637906 C113.569773,1.90831826 113.282253,2.65024649 113.07844,2.45807723 L113.224627,2.69600108 C112.846725,2.59182141 113.114229,3.53225416 112.735114,3.43018623 C112.770296,3.48649957 112.767263,3.74906051 112.827314,3.91236919 C112.701752,4.02006845 112.571943,4.12424813 112.443953,4.22983564 C112.342047,4.23828264 112.236502,4.24039439 112.119431,4.19112022 C112.040575,4.06089562 111.955653,4.09468363 111.874977,4.17000272 C111.80704,4.14254997 111.728184,4.16014788 111.650541,4.17985755 C111.645082,4.1650753 111.639016,4.16225963 111.63477,4.15099697 L111.63295,3.96657078 C111.533471,3.89265953 111.49283,3.94052586 111.468566,3.99895095 C111.438844,4.00599012 111.409121,4.02499587 111.377579,4.05737604 C111.355135,4.02147629 111.327232,3.96797862 111.282345,3.86239111 C111.276279,3.95671595 111.252016,4.03344287 111.220473,4.10031496 C111.131305,4.05667212 111.005743,4.17985755 110.888065,4.26714323 C110.857129,4.33049573 110.829833,4.39525607 110.800111,4.45931249 C110.719435,4.49591616 110.637546,4.52759242 110.561723,4.55926867 L110.544739,4.55926867 C110.518656,4.54167075 110.496212,4.522665 110.485293,4.45368116 C110.430094,4.49380441 110.371256,4.52759242 110.316056,4.56560392 C110.2924,4.56560392 110.268743,4.56630784 110.246299,4.56630784 C110.248119,4.56349217 110.246906,4.55574909 110.250545,4.55082167 C110.296039,4.5015475 110.368223,4.47902216 110.357304,4.37202682 C110.251152,4.3544289 110.137721,4.49169266 110.026109,4.57827442 C109.976976,4.57897834 109.926629,4.58109009 109.878103,4.58390576 C109.845347,4.56419609 109.813805,4.556453 109.781049,4.58601751 C109.768918,4.57053134 109.756179,4.56138042 109.745261,4.54237467 C109.810165,4.43467541 109.955745,4.66767185 109.948466,4.38680907 C109.87325,4.40933441 109.653667,4.31500956 109.648814,4.514218 C109.704013,4.49943575 109.711292,4.53674333 109.706439,4.59305667 C109.665798,4.59446451 109.624551,4.59516842 109.583303,4.59798409 C109.40982,4.21786906 109.117446,4.49521225 108.842664,4.12776771 C108.727413,4.26503148 108.727413,4.45086549 108.612768,4.59024101 C108.633392,4.60924676 108.655229,4.62332509 108.677066,4.64162693 C108.675853,4.64233084 108.675247,4.64373868 108.674033,4.64655434 C108.640065,4.64725826 108.607309,4.64937001 108.574554,4.65148176 C108.568488,4.49521225 108.563635,4.41285399 108.466582,4.36217199 C108.556356,4.7120186 108.436859,4.60924676 108.37984,4.6613366 C102.216946,4.99147354 96.8298728,2.02868802 90.9714838,1.27831278 L91.0369949,0.869337163 C91.0005998,0.830621743 90.7209646,0.64619556 90.9284163,0.539200216 C90.651814,0.680687479 90.1653336,0.562429469 89.9233065,0.596217472 C89.9245197,0.668720895 89.9603081,0.741928235 90.0294587,0.780643655 C89.6564095,0.817247325 89.6812795,1.00378526 89.6503437,1.16216652 C89.5545034,1.15723911 89.45745,1.15160777 89.3603965,1.14738427 C89.3306739,0.930577919 89.2948854,0.658162144 89.4920252,0.527937549 C89.0231358,0.523714048 88.4305031,0.337880031 88.191509,0.750375236 C88.1205387,0.675760062 87.9810243,0.601848805 88.0143864,0.492037795 L87.7723594,0.489222128 L87.9476622,0.673648312 L87.7753923,0.815135575 C87.740817,0.779235822 87.6710599,0.741224318 87.704422,0.669424812 L86.766643,0.5469433 L86.7708891,0.910164334 C86.8794676,1.04038893 87.0026042,1.16779786 87.1378725,1.25226787 C86.9376997,1.27760887 86.7357072,1.30646945 86.5331081,1.34166529 C86.2595387,1.38953163 85.9841496,1.44232538 85.7087604,1.50849356 C85.1622281,1.63942207 84.7618827,1.84637359 84.4943791,2.08640919 C84.4258351,2.07655436 84.3566845,2.05825252 84.2887471,2.05050944 C83.574191,1.9688551 83.3206389,1.72037249 82.8177807,1.58522048 C82.7176943,1.56058339 82.541785,1.68658449 82.411976,1.6619474 C81.9024453,1.57184606 81.2400555,1.51834839 80.4709069,1.42754313 C79.1060928,1.27690495 77.7018506,0.981963841 76.9872946,1.12063544 C75.6685808,1.37122979 74.2321898,0.534272799 72.7630431,0.407567788 C72.4943264,0.422350039 72.2389545,0.446987125 72.0054196,0.497669129 C71.8082798,0.5384963 71.662093,0.698989314 71.4685927,0.72573815 C70.2790814,0.922130918 69.0004021,0.587066554 67.9200759,1.27197753 C67.59616,0.7194029 67.314705,1.46344288 66.712367,1.19384278 C66.6207728,1.2959107 66.6856773,1.57536565 66.5134074,1.58310873 C65.4094244,1.44443713 65.0424411,2.15116953 64.237504,2.36234455 C64.421299,2.69529717 64.0852514,2.57281565 63.8371585,2.59534099 C63.4404525,3.43440973 62.3680119,2.74809092 61.4890716,2.14624211 C60.7993855,2.94941111 59.2398578,1.91746918 58.4767751,2.30251163 C57.4716653,1.79076417 54.861534,2.10259928 53.5925601,2.22578471 C51.8140556,1.88297726 50.2927428,2.27153929 48.3662318,2.07092302 C48.3007207,2.21592987 48.5682243,2.33137221 48.3662318,2.37994247 C47.5406708,2.31518213 46.3954401,2.83819226 45.8234313,2.37994247 C45.88227,2.62842508 45.7184923,2.62279374 45.6208322,2.6924815 C44.7370393,3.04232811 43.3437156,2.79525334 42.6097489,3.31333606 C40.8239654,3.28517939 39.5574179,3.86379894 38.1871444,4.3206409 C35.6831654,4.24391397 33.779098,3.67162967 31.7628125,3.54422074 C31.7907154,3.32248697 32.2674905,3.61602025 32.2972131,3.39006298 C30.9330055,3.24927963 29.2187989,2.81989043 28.0796341,2.92688577 C27.1515604,2.70655983 26.2871781,2.87901943 25.3318082,2.77061626 C24.4565074,2.67206791 23.544205,2.722046 22.6525264,2.61293891 C18.5847736,2.11949328 23.2958613,1.16075869 19.307571,0.901013416 C18.5566199,0.853850995 17.7007298,0.714475483 16.9643367,1.05869076 C16.9976989,1.42120788 17.2002979,1.76612708 17.0292412,2.14061078 C16.930368,2.28561763 16.2285503,2.13990686 16.3619988,2.2968803 C16.5670242,2.32433305 16.8860874,2.21029854 16.8976125,2.45455764 C16.115119,3.13242946 14.881327,2.81777868 13.7585399,2.66221308 L13.770065,2.23493562 C11.7022199,2.7262695 9.46635103,3.02543411 7.01999746,3.13031771 C6.91627159,3.10004929 6.81497205,3.07752395 6.73126345,3.07189262 C6.6948684,3.09582579 6.67667088,3.12257462 6.65058776,3.14861954 C5.74253141,3.18029579 4.80475243,3.18592713 3.83361133,3.16410571 C3.49453084,2.19340454 3.2179285,0.97985209 2.88915993,0 C2.78482747,0.149230347 2.84366613,0.0401232537 2.75813777,0.295645027 C2.08422287,1.00167351 1.87252503,4.19745547 1.90528057,5.50392492 C1.58257784,5.69890986 1.46065445,5.7763407 0.895924674,5.77493287 C0.610223576,5.98329222 0.334834408,5.87348121 0.0145580177,5.90093396 C0.0103119292,6.14871265 0.00545925665,6.39789917 0,6.64778961 C0.0988732037,6.80335521 0.0442806372,6.6893207 0.12071023,6.94906597 C0.812216072,7.03775948 1.42122648,7.34537109 1.60623462,8.03591341 C1.75727406,8.34774852 1.52434577,12.6029252 1.37633926,13.5588441 C1.36056807,13.6595042 1.34601006,13.7693152 1.33023887,13.8777184 C1.27746606,13.8875732 1.23257883,13.9065789 1.20588913,13.9459983 L1.20588913,14.4141029 C1.22469324,14.4183264 1.24046443,14.4246617 1.25866195,14.4295891 C0.957796249,16.9299013 0.821921417,20.6142015 1.19982329,22.8209804 C1.1882982,23.4186057 1.1767731,24.016935 1.16585459,24.6131524 C1.46490053,26.2983291 1.94046245,29.9488413 1.66325353,31.5016816 C1.56498691,31.346116 1.61957947,31.4587426 1.54314988,31.1982935 C1.28231873,30.7006243 1.36845367,29.5701341 0.952943577,29.240701 C0.942631648,29.7876443 0.932319718,30.3345876 0.922007789,30.8829388 C1.20588913,31.396798 1.26290804,32.3400464 1.25562903,33.1333606 C1.69904199,33.1967131 1.8318839,33.214311 1.9993011,33.6014652 C2.23890181,34.034374 2.23283597,34.7601121 2.31654457,35.3732236 C2.29470754,35.8075402 2.26073884,36.2601587 2.20857261,36.6923635 C2.31836432,36.7240398 2.40935193,36.8049902 2.49851979,36.8859407 C2.59314691,37.8847985 2.69080694,39.2405421 2.75449827,40.6005092 L1.95926655,40.6005092 C1.94410195,40.8074608 1.92347809,41.0144123 1.89193572,41.2227716 C1.98716942,41.3656667 2.12061792,41.2614871 2.22495038,41.2389617 C2.21827795,41.287532 2.22070429,41.3339905 2.21463845,41.3839686 C2.25952567,41.4550642 2.31593799,41.4578798 2.37841615,41.4452093 C2.43422188,41.8161734 2.07694386,41.9175374 1.98716942,42.3096191 C2.31957749,42.6017445 2.1363891,43.2936947 1.98716942,43.7871403 C2.16550514,44.4952805 2.23344255,45.1780797 2.2850022,45.8292027 C2.21221211,45.8397615 2.13092984,45.8496163 2.01749862,45.8573594 C1.9040674,46.494404 1.62321898,46.520449 1.49583632,46.8900052 C1.4776388,46.9435029 1.4545886,51.12688 1.53344453,51.5231852 C1.61351363,51.9279373 1.95441388,52.5150038 2.00961303,52.8824484 C2.0908953,53.4223525 1.80034153,53.9699997 2.10484673,54.5289096 C2.3954005,54.8773484 2.60588517,54.8646779 2.9018982,54.9005776 C2.59557324,56.7385042 2.57919547,58.2293999 2.35475937,59.9427332 C1.97746407,60.6389068 2.15761954,61.4765678 1.98716942,62.4254475 C2.01021961,62.6345108 1.62382556,62.4951353 1.70510783,62.74221 C1.81914563,62.7478414 1.96836531,62.733763 2.03508956,62.792892 C2.02174471,62.8203448 2.01021961,62.8456858 2.02538422,62.8928482 C1.52616552,63.5094793 2.11455207,65.0193807 1.23621834,65.7669402 C1.60926754,67.4901284 1.34843639,68.2397997 0.861349382,70.3304324 C1.07608014,71.5573593 1.42304623,73.3319333 1.74574896,74.6376989 C1.7099605,74.6271401 1.70510783,74.5926482 1.65172843,74.5968717 C1.65051526,74.6257323 1.65233501,74.6524811 1.65233501,74.67923 C1.63899016,74.6757104 1.6262519,74.6735986 1.60866096,74.6714869 C1.5880371,74.535631 1.52798528,74.4356748 1.3253862,74.4532727 C1.22529983,75.9540232 2.19713859,72.5760115 2.59445116,73.9732862 C2.02122921,73.5213717 2.14011969,74.5772468 1.75069271,74.837696 C1.69367381,74.820098 1.62634298,74.8053158 1.53535537,74.8151706 C1.50259983,74.6983204 1.39159494,74.6469345 1.20052096,74.6659403 C1.25450694,74.947507 1.11984528,75.0692846 1.10346751,75.2882027 C0.875998483,75.3987176 0.707368111,75.6303062 0.650349209,76.1849926 C0.690990341,76.2589038 1.4122188,75.0197855 1.45831919,75.4146828 C1.42131756,75.4611413 1.95207863,75.463957 2.86377449,75.4393199 C2.86802058,75.8426642 2.89107077,76.0862194 2.94020408,76.3642665 C3.26169364,76.5909277 3.54436182,76.7380463 4.00779205,76.7690186 C4.10787842,77.1730668 3.74019739,79.5871069 3.76749367,80.1643186 C4.07563838,80.0101608 4.64470532,77.3004757 4.86064925,77.163212 C5.20700876,76.9478135 5.77416486,76.6514645 6.89149272,76.2481202 C6.87511495,76.3727135 6.86844253,76.5057538 6.88664005,76.6465371 C6.94911821,76.7176327 7.07346795,76.7176327 7.20570327,76.7070739 C7.21480203,77.2258606 7.15890522,79.6018891 6.99088143,80.1748773 C7.05760568,80.2600513 7.24018748,80.2150006 7.30873148,80.3001745 C7.28689446,80.406466 7.14738012,80.6816974 7.2547455,80.7295637 C7.34148702,80.7197089 7.38455449,80.659876 7.40881785,80.5761099 C7.60353134,80.4838968 7.94512926,77.763653 7.99850865,77.5003881 C8.24720812,77.7657647 7.98931881,79.8552992 7.9972044,80.7295637 C8.05119039,80.6894405 8.08091301,80.6296076 8.11063562,80.5676629 L8.11063562,80.6141214 C8.4315186,80.3952033 8.67242356,77.4046554 8.68516182,76.9400704 C8.79313379,77.1484297 8.25378947,79.9109086 8.36964702,80.1164523 C8.42302642,80.0552115 8.86410413,77.6672164 8.88654774,77.5827464 C8.89685967,77.6242774 8.4697334,79.9714454 8.484898,80.0017138 C8.71903945,79.7454881 9.05699786,76.918249 9.06609662,76.5015303 C9.06427687,76.5134968 9.06488345,76.5282791 9.0594242,76.5360222 C9.02363574,76.5564358 8.9908802,76.5550279 8.95933782,76.5501005 C8.9641905,76.6120452 8.96904317,76.6331627 8.94720614,76.5515083 C8.95084565,76.5522123 8.95569832,76.5493966 8.95933782,76.5501005 C8.9490259,76.419172 8.93932055,76.0904429 9.17710151,76.0411687 C9.09278632,76.1467562 9.07034271,76.3142884 9.06670321,76.5022342 C9.06912954,76.4790049 9.07094929,76.4543678 9.07944147,76.4374738 C9.10977067,76.444513 9.14070646,76.4459208 9.17710151,76.4248033 C9.2001517,76.3889036 9.19711878,76.3142884 9.20561096,76.2551594 C9.3069105,76.2917631 9.41063637,76.3234393 9.48403305,76.2298184 C9.48767255,76.1960304 9.46886845,76.1833599 9.46098285,76.1622424 C9.51375567,76.1650581 9.56228239,76.1650581 9.60110377,76.1185995 C9.6114157,75.8827874 9.34573188,75.96233 9.38576643,75.6997691 C9.43914583,75.6800594 9.49919765,75.6610537 9.56106922,75.6462714 C9.65508976,75.6723163 9.74971687,75.6983613 9.84798349,75.742708 C9.90682214,75.7687529 9.94200402,75.9060167 10.0063019,75.9236146 C10.7875822,76.1692816 12.9500544,75.4632531 13.2751835,76.2262988 C13.6003126,76.0538392 13.6737092,76.3164002 13.9648696,76.1038173 C14.1080234,76.0622862 13.9272614,76.3952388 14.0698086,76.3522999 C14.5399113,76.0284982 15.3436352,76.5599553 15.7057659,76.0629901 C15.8016062,75.9982298 15.8847082,75.9053128 15.9295954,75.7476354 C15.7233568,75.7011769 15.3399957,75.8497034 15.2963216,75.6223383 C15.2963216,75.6019247 15.3066336,75.5941816 15.3102731,75.5786954 C15.3806368,75.5603936 15.4570664,75.548427 15.4910351,75.4921137 C15.9629575,75.7647641 16.7062252,75.723233 17.7208382,75.3675204 L18.4614773,75.3675204 L18.7805405,75.4921137 L20.3740369,75.4921137 C15.1644557,75.1359318 12.7584225,75.0737525 13.1559372,75.3055757 C13.4325396,75.0310482 13.9639072,75.0570931 14.4285506,74.9993719 C14.4418955,74.9402429 14.4273374,74.9170137 14.4036807,74.8980079 C14.452814,74.8923766 14.5019473,74.8874492 14.5498674,74.8825218 C14.6002139,74.6720507 14.3563671,74.8015713 14.3333169,74.6720507 C14.9977287,74.5542619 16.242237,74.4545404 18.0668419,74.3728861 L18.565454,74.3672547 L19.243615,74.5164851 L19.6748962,74.753705 L25.3591956,74.4883284 L27.0139569,74.6410783 L28.0954963,74.5418261 L31.9278945,74.6086982 L34.1892783,74.7027491 L35.0959939,73.3522019 L35.8786067,75.0875256 L39.7227431,75.0875256 L40.1427133,73.419578 L42.712627,74.3213263 L43.1397533,74.3213263 L44.8482584,72.0227286 L47.8381423,75.0875256 L48.3891799,71.982614 L51.6822787,72.0227286 L55.1925019,72.070668 L53.7745004,73.5943326 L56.3806677,72.0227286 L60.2903822,73.3182541 L59.3705516,72.0227286 L63.214688,74.3213263 L69.0743836,71.1170691 L69.0179713,71.2128018 L69.0185779,71.2374389 L68.9197047,71.4028593 L69.0804495,71.7456668 L69.0846956,72.1384523 L69.0846956,72.1940617 L69.113205,72.1926539 L69.1647647,72.2792357 L69.1617317,72.1905422 L69.6021118,72.3200628 L69.6718689,72.1152231 L69.6997718,72.1194466 L69.8593034,71.4753628 L69.9442252,71.4162337 L69.913896,72.5108243 L69.9205684,72.5776964 L70.5635475,72.9817446 L70.64301,74.2685043 L70.6205664,74.3783154 L70.6484693,74.372684 L70.7236857,75.150512 L71.0093868,75.0026895 L72.3141492,75.1624786 L72.4627623,74.8654257 L72.9704731,75.8537248 L73.2531413,75.8509092 L73.218566,75.5932756 L72.8910106,75.649589 L72.8910106,75.514437 L72.7563489,75.5348505 L72.6580823,75.091383 L72.7151012,74.9463762 L72.9213398,75.1920431 L72.9146674,75.2124567 L72.814581,75.1568473 L72.8115481,75.1652943 L73.2191726,75.5925717 L73.7220308,75.5348505 L74.1175236,75.5883482 L74.254005,75.1568473 L74.0611113,75.1054613 L73.928876,75.0329579 L73.8979402,74.9991699 L74.1163104,74.4895342 L75.2378844,74.516987 L75.3094613,74.6908544 L75.3798251,74.5859708 L75.4483691,74.7999615 L75.4914365,74.7352011 L75.5181262,74.8133359 L75.794122,74.7429442 L75.6982817,74.5775238 L75.7898759,74.550071 L76.0410017,74.660586 L75.9366692,74.8668336 L76.1143984,74.863314 L76.0731507,74.9773485 L76.8319873,74.7865871 L77.2923846,74.618351 L77.681205,75.0878634 L66.8562185,74.8809119 L67.8777061,74.8851354 L68.3902696,75.0125443 L69.6252748,74.8893589 L74.8297661,75.0801203 L81.0672702,75.2307585 L81.5149292,75.2307585 L82.1215133,75.3996985 L82.9507137,74.9576388 L82.4187395,75.0561872 L82.4727254,74.5366966 L82.2695198,74.3395999 L82.1093816,74.347343 L82.137891,74.2297889 L81.9777528,74.2368281 L82.1033157,74.0580332 L82.3301782,74.0052395 L82.1033157,74.0580332 L82.2695198,74.3395999 L83.014405,74.4620814 L82.9258438,74.2861023 L82.9349425,74.2642808 L83.2655308,74.2319007 L83.2606782,74.1805148 L83.5384937,74.1854422 L83.8175223,74.2262693 L83.6361537,74.1861461 L84.882684,74.5064282 L85.9047781,74.0960447 L87.9222768,73.9362556 L88.0472331,74.0390275 L88.775134,74.161509 L88.642292,74.0376197 L88.5579769,73.9327361 L88.5573703,73.9179538 L89.9513005,74.1509503 L91.7552815,74.0122787 L91.6200133,73.8651601 L91.5587483,73.7581647 L91.6224396,73.7025553 L92.9745155,73.8278525 L93.3214816,73.6983318 L93.807962,73.8201094 L94.2198326,73.6898848 L96.9846428,73.8355956 L97.4644508,74.4346287 L98.2202545,74.2952532 L98.003704,73.8243329 L99.5644448,73.7785783 L100.97354,73.7370472 L99.6184308,74.2319007 L99.7658308,74.2987728 L99.7415674,74.3466391 L100.993557,74.3346725 L103.458715,73.6835495 L111.574203,73.0992987 L112.545344,73.0901477 L113.034251,73.2717583 L113.446728,73.0817007 L119.144372,73.2731661 L125.050075,74.1509503 L129.127533,74.7260502 L129.942782,74.7774361 L131.268775,74.7302737 L132.630556,74.6626977 L132.813138,74.7746205 L133.075788,74.9428566 L133.28506,74.9146999 L133.296585,74.7894027 L133.995977,74.7049327 L134.137917,74.6993014 L134.620758,74.9484879 L134.868244,74.4796794 L135.131502,74.5620376 L135.46209,74.8231907 L135.563996,74.5359927 L135.739299,74.6204627 L135.741725,74.6894466 L135.837566,74.8245986 L135.922488,74.9801642 L135.92552,74.9872033 L136.803854,74.9020294 L136.584271,74.5634455 L137.087129,74.4325169 L137.141722,74.566965 L137.165378,74.6042726 L137.212692,74.669033 L137.245447,74.702821 L137.293974,74.7499834 L137.330369,74.7816596 L137.391634,74.8288221 L137.430456,74.8626101 L137.456539,74.8879511 L137.486868,74.9273704 L137.500213,74.9498957 L137.513558,75.023807 L137.799865,75.2004901 L137.59666,75.277217 L137.852638,74.9428566 L137.8399,74.9161077 L137.791373,74.8175594 L137.743453,74.7478716 L137.704632,74.6915583 L137.592413,74.5789316 L138.211736,74.7267541 L137.950905,74.3860584 L138.426467,74.3754997 L138.74189,74.643692 L139.290242,74.9006216 L139.281144,74.8809119 L139.371525,74.9013255 L140.126115,74.9118842 L139.981748,74.6049765 L139.956272,74.5528867 L139.952026,74.5366966 L140.388159,74.8569787 L140.536773,75.1652943 L140.568922,75.1638864 L140.62594,75.2758092 L141.390843,75.455308 L142.361984,75.446157 L142.243094,75.2216076 L142.217617,75.0188796 L143.194217,74.8569787 L143.248203,74.9245547 L143.356175,74.9118842 L143.891789,75.1237632 L144.146554,74.5479593 L145.314835,74.4803833 L145.653309,74.5275457 L145.856515,74.4958694 L147.047239,74.5747081 L148.467859,74.559222 L148.860319,74.4965734 L149.252779,74.5282496 L149.496626,74.465601 L149.713176,74.4810872 L151.025824,74.3712762 L152.175908,74.2924375 L152.419755,74.3241138 L152.771573,74.3086276 L153.211953,74.1755873 L154.420875,74.2255654 L155.473905,74.1263132 L155.521825,73.9883455 L155.097823,73.2274115 L155.216107,73.5040508 L155.796608,73.510386 L155.888202,74.1143466 L157.1317,74.093933 L159.593824,74.0376197 L161.195206,74.0376197 L162.122673,73.9791946 L162.328912,74.0376197 L162.53697,73.9862337 L163.508111,74.0376197 L164.142598,74.0376197 L164.588438,73.9017637 L165.329077,73.8806462 L165.321191,73.9278086 L165.364865,73.9728593 L165.357586,73.9327361 L165.512265,74.0052395 L165.651173,73.8700875 L165.773096,74.0284687 L165.529249,74.0277648 L165.531676,74.2494986 L166.029075,74.2241576 L165.933841,74.2994767 L166.053945,74.3262255 L166.201951,74.0868938 L166.920147,74.2861023 L166.943197,74.1263132 L167.159141,74.3536783 L167.446055,74.3360804 L167.499435,74.0326922 L167.709313,73.8003997 L167.956799,73.7919527 L168.019884,73.899652 L167.961652,74.2896218 L167.738429,74.372684 L167.745708,74.3733879 L167.640162,74.5007969 L167.739035,74.6493233 L167.557667,74.6711447 L168.334701,74.6204627 L168.072657,74.4860146 L168.810263,74.5275457 L168.615549,74.3712762 L168.981319,74.1636208 L169.385304,74.1432072 L169.263988,73.7849135 L169.498129,73.7849135 L169.602462,73.9292165 L169.734697,73.9369596 L170.454712,73.93344 L170.992752,73.9721554 L170.761037,74.0791507 L170.782874,74.1326484 L171.168662,74.0298766 L171.084953,73.9721554 L171.762507,73.7912488 L171.996649,74.119274 L172.085817,74.0488823 L172.317532,74.2304928 L172.253234,74.2473868 L172.159213,74.5571102 L173.070303,74.4613775 L173.440319,74.4817911 L172.959298,74.3494548 L172.330877,74.4205504 L172.495868,74.0566254 L172.67663,74.3733879 L172.827062,74.2699122 L172.725156,74.2319007 L173.079401,73.8693836 L174.36536,74.4156229 L174.407214,74.3571979 L174.341096,74.1579894 L174.808166,74.0538097 L174.490923,74.1769952 L174.549155,74.2107832 L174.797248,74.2452751 L175.444473,74.0362118 L175.280695,74.1776991 L175.241874,74.2438673 L175.645252,74.0974526 L175.747765,74.1833304 L176.140225,74.0981565 L176.275493,73.9454066 L176.791089,73.8116624 L176.88693,73.6251245 L177.036149,73.7750587 L177.176877,73.7278963 L177.435282,73.7004435 L177.438921,73.8440426 L177.462578,73.865864 L177.812577,73.8560091 L178.195331,73.8679757 L179.429123,73.9475183 L179.67479,73.8496739 L179.705119,73.7067788 L179.219245,73.4744863 L179.533456,73.468151 L180.43666,73.4618158 L180.253471,73.8876854 L180.301998,73.9341439 L180.761789,73.459704 L181.188217,73.5117939 L182.29402,73.5519171 L174.690179,73.6145657 L175.307075,73.5751464 L175.956726,73.4125416 L176.617903,73.6997396 L176.935146,73.6997396 L177.285752,73.6997396 L177.269374,73.5300957 L176.791993,73.3646753 L176.461404,73.3555243 L176.554212,73.2548643 L176.473536,73.2161488 L176.705251,73.2267076 L176.699792,73.2182606 L176.921195,73.2288193 L177.712181,73.2084057 L177.774052,73.1830647 L177.923878,73.0598793 L177.8614,73.0176443 L177.966946,72.9761132 L178.12951,72.8121006 L178.520151,71.9019363 L179.677513,71.8970089 L179.677513,71.6295205 L179.582886,71.6478224 L179.582886,71.431016 L182.646861,69.6655928 L182.831869,69.7416158 L182.732996,69.5761954 L182.733602,69.5515583 L182.62381,69.3643165 L182.473984,68.852569 L182.445475,71.1909239 L182.638368,71.1571359 L182.65232,71.131091 L182.65232,71.1578398 L182.666878,71.1585437 L182.665665,71.1050461 L182.669304,71.02128 L182.767571,71.2423098 L183.384467,70.6700255 L183.276495,70.6144161 L183.28802,70.4680014 L182.917397,70.3969058 L182.955005,68.9961115 L183.073896,66.1100529 L183.047206,66.1466566 L182.84582,66.1508801 L182.915577,65.3336328 L182.996253,65.2716881 L182.918004,65.1217538 L182.814884,65.2752077 L182.816704,65.0647366 L182.959858,64.9098749 L182.433252,69.716415 L182.778398,69.4974969 L182.789923,69.5108713 L182.794169,69.470748 L182.534551,69.6530625 L182.577619,69.4095073 L182.375626,69.4144347 L182.378053,69.2032597 L182.724412,68.9238047 L182.556995,67.7503755 L182.697723,67.746856 L182.79235,67.941137 L182.801448,67.8531474 L182.743823,67.7743087 L182.721379,67.5230104 L182.640097,67.3857467 L182.712887,66.8183898 L182.468434,65.8723257 L182.439924,65.6850839 L182.438105,65.0255139 L182.197291,64.7390198 L181.061765,64.8460151 L183.518675,74.1365812 L184.518549,72.0227286 L186.493696,72.6748706 L187.508433,69.7241309 L187.935559,70.4903301 L188.789811,70.4903301 L190.925443,70.4903301 L191.779695,71.2565294 L192.206822,70.4903301 L198.186589,69.7241309 L198.392737,71.9857488 L198.613716,70.4903301 L201.59545,71.4112311 L201.176473,67.4255332 L202.030726,70.4903301 L203.63368,71.0456038 L205.172112,70.7696327 L207.583367,69.7241309 L210.573251,71.2565294 L209.718999,68.1917324 L211.427504,71.2565294 C212.533564,71.1296328 213.29412,71.0424017 213.709171,70.9948363 C215.096328,70.8358664 215.798505,70.7557451 215.815703,70.7544727 C215.838147,70.7213886 215.84118,70.6847849 215.843606,70.650293 C215.883034,70.6481813 215.932167,70.6446617 215.970382,70.641846 C216.005564,70.5883484 216.005564,70.5249959 216.000105,70.4616433 C216.119602,70.439118 216.239099,70.4165927 216.362842,70.396883 C216.487192,70.4876883 216.59577,70.5974993 216.769253,70.6298794 C216.860241,70.641846 216.878438,70.5735661 216.897243,70.5052862 C216.906341,70.5073979 216.912407,70.515141 216.921506,70.5158449 C217.01674,70.5292194 217.033724,70.4539003 217.054348,70.3806929 L218.972973,70.4384141 C219.541294,70.4844041 219.977971,70.5194538 220.329169,70.5464228 C220.658639,70.5717232 221.108427,71.3192249 221.678534,72.7889279 C222.271275,71.3567356 223.240126,70.6579356 224.585089,70.692528 C227.807264,70.4707943 225.929767,70.7460257 228.819534,70.3609833 C229.207748,70.4363023 229.456447,70.4341906 229.882876,70.4271514 C230.109132,70.4440454 230.162511,70.7903725 230.471262,70.7727745 C230.776981,70.8079704 231.678365,70.7066064 231.870045,70.6854889 C233.680092,70.9227088 235.28936,70.481353 237.483374,70.5601917 C239.924268,70.6432539 224.198471,70.540482 226.324549,70.7108299 C226.607823,70.7361709 226.80739,70.8586524 226.970561,70.8178252 C227.133732,70.776998 227.309641,70.6953437 227.520126,70.6552204 C227.73061,70.6150972 229.064489,70.5735661 229.345337,70.6143933 C229.626186,70.6552204 230.57367,70.5735661 230.57367,70.5735661 C230.57367,70.5735661 231.275488,70.6960476 231.6267,70.6143933 C231.977912,70.5327389 232.3637,70.3701342 232.609366,70.4517885 C232.855033,70.5334429 233.923834,70.6833771 234.349656,70.4412298 C234.551042,70.4264475 234.606848,70.2476527 234.775478,70.1990824 C235.056326,70.3370501 235.623482,70.1540317 235.838213,70.3813968 C236.10693,70.1336181 236.453896,70.5221802 236.635265,70.2258312 C236.71958,70.2131607 236.79237,70.1638866 236.841503,70.0181758 C236.854848,69.8527554 236.735351,69.779548 236.596443,69.7647658 C236.678332,69.7689893 236.760221,69.7689893 236.84393,69.7640619 C237.020446,69.7668775 236.897309,70.1125006 237.004068,70.1990824 C237.170878,70.2708819 237.357706,70.3602793 237.532402,70.2589153 C237.543321,70.2131607 237.538468,70.1927472 237.536649,70.1624787 C237.590028,70.1617748 237.642194,70.1723336 237.693754,70.1448808 C237.74592,69.9421528 237.608225,69.9513037 237.593667,69.8231909 C237.795053,69.7943303 238.075902,69.8534593 238.276075,69.8231909 C239.058568,70.4018104 239.821044,70.1188359 240.720608,70.1455847 C240.696345,70.4440454 240.679361,70.7418022 240.647212,71.0402629 C240.964455,70.9114461 241.241057,70.8354231 241.446083,70.844574 C241.699635,69.7816598 242.250413,70.4722021 242.822422,69.838677 C242.895212,69.5275458 243.017742,69.1636209 243.163929,68.7877294 L243.683772,66.0494933 L243.686198,65.2245029 C243.958554,64.6599616 244.233943,64.1566612 244.428657,63.8652397 C243.948849,63.0212435 244.916957,63.2823966 244.72285,62.4693728 C244.926056,62.2553821 245.444079,62.4785237 245.588446,62.1955492 C245.133507,61.9921172 244.30916,62.1976609 244.095036,61.7175897 C244.397721,61.4388387 244.057427,61.4958559 243.984637,61.2361107 C244.460199,61.2663791 244.921203,61.2867927 245.162624,61.2206245 C245.262103,60.7314024 244.763491,60.903158 244.593648,60.7109888 C244.647634,60.5336018 245.043126,60.810945 244.995813,60.4969981 C244.771983,60.1126596 243.880305,60.4758806 243.708035,60.0310052 L243.708035,60.0028485 C243.903962,59.2566968 243.803875,59.2764065 243.710461,59.1433662 L243.713494,58.2367215 C243.959161,58.1128321 244.245468,72.1669512 244.274584,71.4982303 C244.412279,71.0808076 244.520251,70.6711281 244.484463,70.376187 C244.396508,70.308611 244.317652,70.714067 244.252747,71.1638698 C244.230304,71.1610541 244.209073,71.1842834 244.184203,71.2251106 C244.233943,70.739408 244.280044,70.257929 244.294602,70.207247 C244.099282,70.2980522 243.897289,72.066995 243.83845,71.8368142 C244.076231,70.9498791 243.523633,69.5230399 244.220598,68.7487315 C244.179957,68.364393 243.886371,68.6480714 243.829352,68.5692327 C244.089576,66.5989698 244.110807,64.466806 244.210893,62.134026 C244.069559,62.1136124 243.898502,62.1262829 243.749889,62.1136124 L243.763234,57.9626154 C243.763234,57.9626154 243.894863,57.4128565 244.023459,56.7948176 C244.024065,56.7941137 244.024672,56.7927058 244.025278,56.7920019 C244.165399,56.1084988 244.300668,55.3496765 244.251534,55.142725 C244.170859,54.8041411 243.950062,53.7088466 244.038623,53.3998272 L244.30552,50.0048368 C244.287929,49.9999094 244.272765,49.9992054 244.254567,49.9935741 C244.272158,49.9844232 244.28429,49.9675292 244.301274,49.9576744 L244.232124,48.9834536 L244.092609,48.9735988 L244.11202,48.0599148 C244.184203,47.5882906 244.210287,47.1265213 244.141743,46.6605284 L244.150235,46.2585919 C244.23637,46.1523005 244.37831,46.1199203 244.37831,45.8988905 C244.166006,44.4460063 244.82415,43.3274827 244.393475,41.997784 L244.225451,42.6953654 L244.457166,31.7325663 L244.205434,30.9716323 C244.118692,31.320775 244.025885,31.582632 243.910634,31.6129004 C244.261846,31.0152751 243.367741,29.7700464 243.91852,29.2737851 C243.560635,29.3652943 244.795034,27.0156202 244.486282,27.0606709 C244.52571,26.028729 244.564532,25.0622513 244.599714,24.1330812 C244.625797,23.1975759 244.65006,22.3021938 244.67493,21.4222979 C244.691308,20.9211092 244.717997,20.42344 244.744081,19.9243631 C244.818084,19.9257709 244.881169,19.8891672 244.901792,19.7842837 C244.853266,19.7631662 244.804132,19.7237468 244.755606,19.6808079 C244.798673,18.9304327 244.852052,18.1765378 244.929695,17.4008216 L244.890874,17.1840153 C245.021289,17.2642618 245.222675,17.2698931 245.424668,17.2762283 C245.467129,16.9953656 245.665482,16.9228621 245.718255,16.6588934 C245.590265,16.6497425 245.649711,16.4385674 245.465916,16.4786907 C245.492605,16.7996767 245.405864,16.9601697 245.183247,16.9348287 C245.226921,16.6384798 245.178395,16.4399753 245.014617,16.366064 C244.936368,16.4878416 244.860545,16.611027 244.817477,16.7771514 L244.453527,14.7484634 C244.485676,14.6794795 244.514792,14.6055683 244.519038,14.4985729 C244.485069,14.480975 244.455953,14.4816789 244.425624,14.4816789 C244.437149,14.4380361 244.463232,14.3789071 244.50266,14.3056997 C244.831429,14.2235761 245.329434,14.111888 245.996677,13.9706354 Z M216.027282,4.57405092 C215.750073,4.42411666 215.950853,3.84479319 215.5038,4.02147629 L215.58023,3.45904682 C215.608133,3.89125169 216.623555,4.01866062 216.027282,4.57405092 Z M217.44305,3.9799452 C217.304142,3.86731852 217.265927,3.53858941 217.508561,3.54351683 C217.474592,3.68641192 217.580744,3.87154202 217.44305,3.9799452 Z M222.84033,3.35768281 C222.806361,3.32530264 222.768753,3.29714597 222.709914,3.29151464 C221.880714,3.19507804 238.929471,3.20704463 238.051137,3.19507804 C237.487014,3.12820596 236.921677,3.05922212 236.360587,2.99868528 C238.489697,3.02613803 222.896135,2.73542042 224.551503,3.12961379 C223.995872,3.27250888 223.423257,3.34149272 222.84033,3.35768281 Z M234.999914,5.5996576 L234.610487,5.59261843 L234.606241,5.30049299 C234.651735,5.30330866 234.696015,5.30753216 234.741509,5.31105174 C234.813086,5.4483155 234.90468,5.5658696 235.013865,5.59473018 C235.009619,5.59613802 235.004767,5.59684193 234.999914,5.5996576 Z M237.028331,4.90418787 L236.785091,4.82534919 L237.095055,4.57545876 L237.028331,4.90418787 Z M243.051711,29.1639741 C243.126321,28.9879949 242.931001,28.6648971 243.193652,28.5853546 C243.353183,28.6613776 243.377447,29.0816158 243.051711,29.1639741 Z M243.182127,28.4839905 C243.344084,28.4157106 243.399284,28.0285564 243.638278,28.1798985 C243.708035,28.3601012 243.470254,28.6810872 243.182127,28.4839905 Z" id="Shape"></path>
                        </g>
                    </g>
                </g>
            </g>
        </g>
    </g>
</svg>