<?xml version="1.0" encoding="UTF-8"?>
<svg width="628px" height="119px" viewBox="0 0 628 119" version="1.1" xmlns="http://www.w3.org/2000/svg" xmlns:xlink="http://www.w3.org/1999/xlink">
    <title>Path</title>
    <g id="Page-1" stroke="none" stroke-width="1" fill="none" fill-rule="evenodd">
        <g id="2032972" transform="translate(-14.000000, -484.000000)" fill="#000000" fill-rule="nonzero">
            <g id="Group" transform="translate(601.400000, 427.300000) scale(-1, 1) rotate(-180.000000) translate(-601.400000, -427.300000) translate(0.400000, 0.800000)">
                <path d="M103.2,369.1 C102.9,368.7 102.6,367.7 102.6,366.8 C102.6,364.8 98,361.3 92.9,359.4 C90.8,358.6 87.7,357.4 85.9,356.7 C83.4,355.7 82.2,355.7 80.4,356.6 C76.7,358.6 65.2,358.4 63.8,356.2 C62.8,354.7 56.2,351.8 53.8,351.8 C52.7,351.8 51.6,351.2 51.3,350.4 C50.8,349.3 41.5,346.7 36.1,346.2 C18.2,344.7 18.1,344.7 16.1,340.4 C14.2,336.5 13.6956735,331.2 13.8,316.8 C13.9,301.2 13.8,296.8 13.6956735,286.5 C13.6,276.4 15.2,272.9 22,268.3 C26.8,265 28,265.1 32.6,269.1 C40.8,276.1 57.9,280.3 71.6,278.6 C76.3,278.1 81.5,277 83.1,276.3 C88.9,273.8 98.2,272.5 109.6,272.6 C117.2,272.7 123.4,272.1 127.9,271 C133.8,269.6 135.4,269.6 140.4,270.8 C150.7,273.2 157.1,273.2 162,270.8 C165.9,269 167,268.8 170.6,269.8 C175,271 182.4,271 184.1,269.7 C184.7,269.3 186.6,268.7 188.4,268.3 C191,267.8 192.2,268.1 194.6,270.1 C196.2,271.5 199.2,273.2 201.2,273.8 C205.5,275.3 214.9,274.3 216.7,272.2 C217.3,271.4 218.4,270.8 219,270.8 C219.7,270.8 222.8,269.4 226,267.7 C231.6,264.7 232,264.6 237.4,265.7 C241.2,266.5 250.8,266.7 266.6,266.4 C298.9,265.7 313.8,264.6 314.4,263 C314.8,261.6 321,258.8 323.7,258.8 C324.8,258.8 327.4,260.4 329.5,262.3 C331.7,264.3 334.8,266.3 336.5,266.8 C339.4,267.6 340.2,267.2 346.7,261.6 C350.5,258.3 354,255.8 354.3,256.2 C354.7,256.5 355.6,256.2 356.5,255.5 C358.7,253.6 366.7,250.8 369.7,250.8 C372.4,250.8 374.3,252.5 376.6,257.1 C379,262 383,264.5 391.2,266.3 C397.5,267.7 399.7,267.8 402.9,266.8 C405,266.2 410,265.4 413.9,265.1 C418.8,264.7 423.2,263.5 427.6,261.5 C434,258.6 434.2,258.6 447.1,259.2 C454.3,259.5 462.7,260.3 465.9,260.8 C470.2,261.6 473.2,261.6 477.4,260.7 C484.8,259.2 505,259.4 514.8,261.2 C519.1,261.9 525.4,264 529,265.7 C532.6,267.4 536.1,268.8 536.9,268.8 C537.6,268.8 540.6,270.6 543.5,272.8 C549.7,277.3 554.3,278.3 565,277.5 C568.9,277.1 574,277.2 576.4,277.7 C578.7,278.2 580.6,278.1 580.6,277.7 C580.6,277.2 581.2,276.8 581.9,276.8 C583.3,276.8 597.4,271.1 599,269.9 C603.1,266.9 610.7,265.3 621.6,265.3 C627.9,265.3 633.6,265.6 634.2,266 C634.7,266.4 635.1,268.2 635,270 C634.8,271.8 636.3,278.6 638.2,285.1 C640.1,291.7 641.4,297.3 641.2,297.7 C641,298 640.2,304.6 639.6,312.3 C638.7,322.6 638,326.9 636.7,328.8 C633.2,333.7 630.2,343.1 630.3,348.6 C630.4,351.4 630.1,353.8 629.7,353.8 C629.4,353.8 629.2,355.6 629.4,357.8 C629.7,361.1 629.5,361.8 628.1,361.8 C624.9,361.8 618.4,359.4 617.9,358.1 C617.6,357.4 616.4,356.8 615.1,356.8 C613.9,356.8 612.1,355.9 611,354.7 C609.5,353 608.4,352.7 605.4,353.2 C603.1,353.6 600.3,353.3 598.3,352.5 C594.6,350.9 584.9,351.7 583.7,353.6 C583.3,354.3 581.7,355 580,355.4 C577.5,355.9 576.8,355.6 575.8,353.4 C575.1,351.7 573.4,350.6 570.7,349.8 C568.5,349.2 566.4,348.3 566.1,347.9 C565.4,346.6 543.2,347.4 540.7,348.7 C539.6,349.3 537.4,349.8 535.7,349.8 C534.1,349.8 532.6,350.3 532.4,351 C532.1,351.7 529.5,352.3 525.6,352.5 C522.1,352.6 519,353.2 518.6,353.8 C518.2,354.5 513.9,354.6 505.5,354.2 C498.7,353.8 492.2,353.5 491.1,353.6 C485.1,353.8 476,355.1 475.1,355.8 C473.6,357 467.5,356.3 466.6,354.8 C465.7,353.3 456.8,351.7 456,353 C455.7,353.4 455,353.6 454.5,353.3 C454,352.9 450.4,352.5 446.6,352.3 C441.4,352.1 439.6,352.3 439.6,353.3 C439.6,355.5 430.6,357.2 427.9,355.5 C427.3,355.1 425.7,355.2 424.4,355.7 C423.2,356.1 419.4,356.4 416.1,356.3 C411.6,356.1 408.8,356.6 405.1,358.3 C399.6,360.8 387.9,361.5 383.9,359.6 C382.3,358.8 381.3,358.8 380.4,359.6 C378.7,360.9 365.9,361 365,359.7 C364.2,358.3 360.1,356.8 355.2,356.3 C353,356 350.1,355.3 348.9,354.6 C346.3,353.3 340,354.9 335.4,358 C333.5,359.3 332.1,359.6 330.4,359 C329.2,358.5 326.2,357.8 323.9,357.4 C319.7,356.8 319.6,356.8 319.6,359.7 L319.6,362.5 L311.9,360.6 C307.6,359.5 302.1,358.4 299.6,358.1 C297,357.8 294.3,356.8 293.3,355.7 C291.8,354.1 290.5,353.8 286.5,354.2 C283.7,354.4 280.9,355.1 280.2,355.7 C279.5,356.3 276.8,356.9 274.1,357.2 C271.1,357.4 269,358.1 268.4,359.2 C267.9,360.1 266.9,360.8 266.1,360.8 C265.4,360.8 263.9,361.9 262.8,363.3 C261.7,364.6 258.9,366.4 256.5,367.2 C251.6,368.9 250.6,368.3 250.6,363.5 C250.6,361.8 249.9,360.5 248.9,360.1 C247.9,359.7 246.9,359.1 246.6,358.7 C245.6,357.3 234.1,353 233.8,353.9 C233.6,354.4 232.7,354.8 231.7,354.8 C230.8,354.8 229.5,355.3 228.8,356 C227.9,356.9 227.6,356.9 227.6,356 C227.6,354.6 224.3,354.4 221.8,355.7 C211,361.5 204.4,362.5 199.6,359 C196.8,356.9 195.7,356.7 185.3,357 C179.2,357.2 171.2,356.8 167.7,356.2 C163.5,355.4 160.4,355.3 158.8,355.9 C157.4,356.4 155.4,356.5 154.2,356.2 C148.1,354.2 124.9,353.7 123.4,355.6 C122.8,356.2 121.5,356.8 120.5,356.8 C117.1,356.8 111.9,360.3 109,364.5 C106.1,368.8 104.3,370.2 103.2,369.1 Z" id="Path"></path>
            </g>
        </g>
    </g>
</svg>